<?xml version="1.0" encoding="UTF-8" standalone="no"?>
<!-- Generator: Adobe Illustrator 16.0.0, SVG Export Plug-In . SVG Version: 6.00 Build 0)  -->

<svg
   xmlns:dc="http://purl.org/dc/elements/1.1/"
   xmlns:cc="http://creativecommons.org/ns#"
   xmlns:rdf="http://www.w3.org/1999/02/22-rdf-syntax-ns#"
   xmlns:svg="http://www.w3.org/2000/svg"
   xmlns="http://www.w3.org/2000/svg"
   xmlns:sodipodi="http://sodipodi.sourceforge.net/DTD/sodipodi-0.dtd"
   xmlns:inkscape="http://www.inkscape.org/namespaces/inkscape"
   version="1.1"
   id="Vrstva_1"
   x="0px"
   y="0px"
   width="159.65027"
   height="205.65485"
   viewBox="0 0 159.65026 205.65485"
   enable-background="new 0 0 229.876 284.986"
   xml:space="preserve"
   sodipodi:docname="logo-banner.svg"
   inkscape:version="0.92.1 r15371"><metadata
     id="metadata649"><rdf:RDF><cc:Work
         rdf:about=""><dc:format>image/svg+xml</dc:format><dc:type
           rdf:resource="http://purl.org/dc/dcmitype/StillImage" /><dc:title></dc:title></cc:Work></rdf:RDF></metadata><defs
     id="defs647" /><sodipodi:namedview
     pagecolor="#ffffff"
     bordercolor="#666666"
     borderopacity="1"
     objecttolerance="10"
     gridtolerance="10"
     guidetolerance="10"
     inkscape:pageopacity="0"
     inkscape:pageshadow="2"
     inkscape:window-width="1600"
     inkscape:window-height="840"
     id="namedview645"
     showgrid="false"
     fit-margin-top="0"
     fit-margin-left="0"
     fit-margin-right="0"
     fit-margin-bottom="0"
     inkscape:zoom="0.82811088"
     inkscape:cx="79.826694"
     inkscape:cy="98.322004"
     inkscape:window-x="0"
     inkscape:window-y="0"
     inkscape:window-maximized="1"
     inkscape:current-layer="Vrstva_1" /><g
     id="g642"
     transform="translate(-35.111309,-35.160153)"><g
       id="g632"><polygon
         points="72.356,225.595 65.355,231.734 67.412,240.815 59.409,236.055 51.405,240.815 53.462,231.734 46.459,225.595 55.733,224.743 59.409,216.187 63.084,224.743 "
         id="polygon624"
         style="fill:#ffdea5" /><polygon
         points="109.376,225.595 102.375,231.734 104.43,240.815 96.429,236.055 88.425,240.815 90.482,231.734 83.479,225.595 92.751,224.743 96.429,216.187 100.104,224.743 "
         id="polygon626"
         style="fill:#ffdea5" /><polygon
         points="146.397,225.595 139.396,231.734 141.451,240.815 133.447,236.055 125.446,240.815 127.501,231.734 120.5,225.595 129.772,224.743 133.447,216.187 137.125,224.743 "
         id="polygon628"
         style="fill:#ffdea5" /><polygon
         points="183.417,225.595 176.416,231.734 178.471,240.815 170.469,236.055 162.466,240.815 164.521,231.734 157.52,225.595 166.792,224.743 170.469,216.187 174.143,224.743 "
         id="polygon630"
         style="fill:#ffdea5" /></g><g
       id="g640"><g
         id="g636"><path
           d="m 194.615,130.535 c -0.773,-12.184 -9.47,-20.984 -20.242,-28.695 10.505,-0.503 14.996,-8.545 15.91,-12.861 0.256,-1.204 -0.439,-2.407 -1.609,-2.787 -2.93,-0.953 -5.747,-1.436 -8.376,-1.436 -8.866,0 -14.273,5.58 -16.72,9.936 -0.934,-0.588 -1.867,-1.173 -2.8,-1.758 -3.638,-2.279 -7.398,-4.637 -10.929,-7.037 -6.664,-4.529 -7.214,-11.738 -7.249,-12.352 0.03,-8.984 7.349,-16.283 16.339,-16.283 1.885,0 3.673,0.419 5.279,1.164 1.076,0.542 2.102,1.215 3.071,2.031 0.029,0.024 0.063,0.041 0.093,0.063 2.545,2.305 4.148,5.634 4.148,9.33 0,5.288 -4.304,9.591 -9.592,9.591 -3.966,0 -7.19,-3.225 -7.19,-7.19 0,-2.907 2.364,-5.271 5.271,-5.271 1.542,0 2.906,0.926 3.475,2.359 0.489,1.236 1.888,1.842 3.125,1.352 1.235,-0.489 1.841,-1.889 1.352,-3.124 -1.301,-3.282 -4.421,-5.403 -7.951,-5.403 -5.562,0 -10.087,4.525 -10.087,10.087 0,6.62 5.386,12.005 12.006,12.005 7.943,0 14.405,-6.461 14.405,-14.405 0,-6.919 -4.059,-12.906 -9.922,-15.71 -8.874,-4.504 -19.972,-1.846 -31.542,2.822 1.554,-2.648 2.399,-5.375 2.521,-8.162 0.32,-7.262 -4.475,-12.089 -4.68,-12.291 -0.875,-0.865 -2.262,-0.931 -3.216,-0.152 -12.433,10.164 -8.753,21.15 -6.325,25.768 -0.907,0.422 -1.813,0.845 -2.717,1.267 -4.041,1.888 -8.219,3.839 -12.239,5.534 -7.427,3.129 -13.774,-0.329 -14.308,-0.633 -7.525,-4.91 -9.673,-15.022 -4.785,-22.568 0.871,-1.343 1.968,-2.482 3.229,-3.388 0.345,-0.206 0.693,-0.408 1.056,-0.599 0.183,-0.098 0.347,-0.217 0.493,-0.35 0.986,-0.509 2.045,-0.893 3.16,-1.13 3.288,-0.703 6.653,-0.083 9.477,1.746 4.438,2.876 5.709,8.825 2.834,13.263 -2.157,3.328 -6.617,4.281 -9.945,2.125 -1.182,-0.766 -1.994,-1.945 -2.289,-3.322 -0.294,-1.377 -0.034,-2.785 0.731,-3.967 0.836,-1.291 2.353,-1.932 3.86,-1.635 1.303,0.258 2.568,-0.592 2.827,-1.896 0.257,-1.305 -0.593,-2.57 -1.896,-2.828 -3.451,-0.681 -6.919,0.787 -8.834,3.74 -1.464,2.262 -1.961,4.958 -1.397,7.592 0.563,2.635 2.118,4.893 4.379,6.357 5.555,3.6 13.003,2.008 16.604,-3.548 4.316,-6.666 2.407,-15.603 -4.257,-19.921 -3.901,-2.529 -8.554,-3.387 -13.101,-2.414 -2.307,0.492 -4.443,1.427 -6.321,2.735 C 79.229,44.642 75.48,56.494 73.68,69.681 69.204,62.097 62.349,61.077 59.007,61.077 c -2.339,0 -3.962,0.443 -4.139,0.493 -1.184,0.339 -1.924,1.514 -1.714,2.728 2.8,16.164 14.793,18.061 19.244,18.194 -0.086,1.112 -0.169,2.225 -0.252,3.334 -0.32,4.282 -0.65,8.709 -1.127,12.95 -0.9,8.009 -7.019,11.857 -7.546,12.174 -7.962,4.162 -17.832,1.095 -22.025,-6.857 -1.569,-2.976 -1.884,-6.383 -0.89,-9.596 0.993,-3.213 3.18,-5.846 6.154,-7.413 2.266,-1.194 4.861,-1.436 7.309,-0.679 2.448,0.757 4.453,2.422 5.647,4.688 1.85,3.508 0.5,7.866 -3.006,9.716 -1.245,0.657 -2.673,0.79 -4.019,0.374 -1.345,-0.417 -2.446,-1.332 -3.103,-2.578 -0.722,-1.367 -0.536,-3.008 0.47,-4.18 0.867,-1.008 0.752,-2.527 -0.257,-3.395 -1.009,-0.866 -2.526,-0.751 -3.395,0.258 -2.304,2.681 -2.728,6.435 -1.079,9.563 2.595,4.918 8.706,6.812 13.627,4.217 5.855,-3.088 8.107,-10.363 5.021,-16.22 -1.795,-3.403 -4.808,-5.904 -8.483,-7.042 -3.677,-1.139 -7.574,-0.775 -10.979,1.02 -4.112,2.168 -7.134,5.807 -8.509,10.248 -0.465,1.506 -0.718,3.042 -0.771,4.576 -0.023,0.115 -0.039,0.232 -0.046,0.354 -0.581,13.134 8.054,22.815 19.012,31.403 -0.023,0 -0.049,-0.002 -0.072,-0.002 -10.636,0 -15.479,7.982 -16.556,12.203 -0.303,1.193 0.342,2.424 1.496,2.852 3.209,1.189 6.297,1.793 9.18,1.793 9.233,0 14.179,-5.923 16.265,-9.344 0.932,0.647 1.865,1.291 2.797,1.936 3.534,2.438 7.188,4.959 10.606,7.511 6.459,4.823 6.689,12.05 6.695,12.661 -0.205,4.34 -2.082,8.342 -5.288,11.276 -3.219,2.947 -7.394,4.46 -11.753,4.271 -3.359,-0.148 -6.46,-1.597 -8.731,-4.078 -2.271,-2.48 -3.439,-5.696 -3.29,-9.057 0.233,-5.283 4.718,-9.383 10.005,-9.156 3.961,0.174 7.041,3.54 6.866,7.502 -0.063,1.406 -0.669,2.703 -1.707,3.654 -1.039,0.951 -2.385,1.439 -3.793,1.378 -1.546,-0.069 -2.868,-1.058 -3.37,-2.521 -0.432,-1.257 -1.801,-1.927 -3.059,-1.495 -1.258,0.432 -1.928,1.801 -1.496,3.059 1.15,3.348 4.178,5.611 7.713,5.768 2.688,0.123 5.267,-0.816 7.255,-2.636 1.986,-1.819 3.147,-4.303 3.266,-6.994 0.143,-3.204 -0.973,-6.271 -3.137,-8.636 -2.165,-2.366 -5.121,-3.746 -8.325,-3.889 -7.936,-0.342 -14.676,5.82 -15.027,13.754 -0.205,4.645 1.409,9.092 4.549,12.521 1.1,1.202 2.346,2.225 3.693,3.061 0.127,0.126 0.268,0.242 0.426,0.341 11.157,6.879 23.776,4.087 36.573,-1.276 -1.441,2.613 -2.211,5.29 -2.285,8.014 -0.201,7.267 4.674,12.014 4.882,12.212 0.464,0.444 1.063,0.668 1.665,0.668 0.551,0 1.104,-0.188 1.553,-0.569 12.176,-10.293 8.456,-21.136 5.951,-25.77 0.992,-0.486 1.982,-0.975 2.972,-1.462 3.85,-1.899 7.831,-3.864 11.725,-5.61 7.354,-3.297 13.779,0.021 14.319,0.313 7.633,4.741 10.005,14.802 5.286,22.455 -0.841,1.361 -1.91,2.526 -3.151,3.459 -0.34,0.214 -0.684,0.424 -1.041,0.623 -0.182,0.102 -0.342,0.223 -0.485,0.359 -0.975,0.531 -2.025,0.938 -3.135,1.201 -3.271,0.777 -6.649,0.23 -9.513,-1.533 -4.5,-2.775 -5.905,-8.696 -3.129,-13.197 2.08,-3.375 6.52,-4.428 9.895,-2.347 1.198,0.738 2.038,1.9 2.362,3.271 0.325,1.37 0.097,2.784 -0.643,3.982 -0.81,1.313 -2.314,1.988 -3.832,1.719 -1.31,-0.234 -2.559,0.643 -2.791,1.951 -0.231,1.309 0.642,2.559 1.95,2.791 3.475,0.613 6.918,-0.93 8.771,-3.934 1.413,-2.293 1.85,-5 1.229,-7.621 -0.621,-2.621 -2.227,-4.844 -4.52,-6.258 -5.636,-3.473 -13.046,-1.717 -16.521,3.918 -4.169,6.762 -2.061,15.654 4.702,19.822 2.78,1.715 5.913,2.597 9.102,2.597 1.347,-0.001 2.705,-0.157 4.049,-0.476 2.294,-0.545 4.411,-1.527 6.258,-2.879 10.382,-6.597 13.858,-18.547 15.361,-31.789 4.294,7.076 10.552,8.371 14.535,8.371 2.608,0 4.438,-0.554 4.639,-0.616 1.174,-0.37 1.88,-1.567 1.636,-2.773 -3.221,-15.931 -14.865,-17.651 -19.722,-17.651 -0.036,0 -0.069,0.002 -0.105,0.002 0.063,-1.156 0.125,-2.313 0.185,-3.467 0.225,-4.288 0.455,-8.721 0.836,-12.97 0.72,-8.027 6.753,-12.012 7.271,-12.34 3.803,-2.1 8.194,-2.6 12.376,-1.407 4.196,1.196 7.676,3.956 9.797,7.77 0.76,1.363 1.234,2.809 1.449,4.268 0.027,0.447 0.043,0.898 0.043,1.355 0,0.225 0.032,0.439 0.09,0.645 -0.059,4.365 -2.382,8.586 -6.463,10.855 -2.238,1.245 -4.828,1.544 -7.293,0.842 -2.463,-0.703 -4.505,-2.322 -5.751,-4.563 -0.935,-1.678 -1.157,-3.619 -0.631,-5.467 0.526,-1.846 1.74,-3.379 3.42,-4.312 1.229,-0.685 2.653,-0.85 4.007,-0.463 1.354,0.386 2.477,1.276 3.16,2.508 0.752,1.349 0.605,2.991 -0.374,4.185 -0.843,1.027 -0.692,2.545 0.336,3.388 1.028,0.844 2.545,0.692 3.388,-0.335 2.24,-2.732 2.578,-6.492 0.858,-9.578 -1.308,-2.354 -3.456,-4.059 -6.048,-4.797 -2.59,-0.738 -5.313,-0.424 -7.668,0.885 -2.803,1.56 -4.83,4.116 -5.71,7.2 -0.878,3.083 -0.504,6.325 1.055,9.127 1.87,3.363 4.938,5.797 8.638,6.851 3.701,1.056 7.592,0.607 10.953,-1.264 6.415,-3.569 9.689,-10.619 8.79,-17.488 z M 180.298,89.57 c 1.418,0 2.925,0.18 4.499,0.538 -1.275,2.689 -4.408,6.942 -11.47,6.942 -1.593,0 -3.322,-0.213 -5.163,-0.632 1.694,-2.729 5.371,-6.848 12.134,-6.848 z M 130.696,41.748 c 0.956,1.543 2.039,3.97 1.894,6.9 -0.175,3.532 -2.05,7.059 -5.58,10.51 -1.666,-3.448 -3.464,-10.367 3.686,-17.41 z M 58.431,65.906 c 0.184,-0.008 0.376,-0.013 0.576,-0.013 4.51,0 10.196,2.122 12.769,11.756 C 67.349,77.353 60.931,75.22 58.431,65.906 Z m -10.23,75.533 c -1.617,0 -3.341,-0.246 -5.146,-0.734 1.336,-2.547 4.464,-6.484 11.026,-6.484 1.793,0 3.753,0.287 5.85,0.856 -1.744,2.569 -5.391,6.362 -11.73,6.362 z m 52.27,49.381 c -0.975,-1.517 -2.09,-3.905 -2.012,-6.811 0.098,-3.545 1.906,-7.112 5.383,-10.633 0.584,1.186 1.195,2.775 1.468,4.619 0.676,4.573 -0.951,8.878 -4.839,12.825 z m 71.939,-25.526 c -0.298,0.021 -0.617,0.035 -0.955,0.035 -4.365,0 -9.93,-2.061 -12.711,-11.396 4.292,0.184 10.88,2.078 13.666,11.361 z m 7.48,-51.003 c -5.433,-1.548 -11.146,-0.89 -16.084,1.857 -0.025,0.014 -0.051,0.028 -0.075,0.043 -0.354,0.213 -8.644,5.343 -9.603,16.047 -0.389,4.34 -0.623,8.818 -0.849,13.148 -0.579,11.076 -1.145,21.793 -4.121,30.323 -0.566,-6.435 -4.055,-12.535 -9.964,-16.179 -0.024,-0.016 -0.05,-0.029 -0.075,-0.045 -0.357,-0.203 -8.885,-4.928 -18.693,-0.534 -3.975,1.782 -7.996,3.767 -11.886,5.687 -10.01,4.939 -19.695,9.714 -28.639,11.255 0.918,-0.608 1.798,-1.29 2.626,-2.048 4.168,-3.815 6.602,-9.025 6.851,-14.67 0.001,-0.029 0.002,-0.059 0.002,-0.088 0.004,-0.412 -0.019,-10.16 -8.631,-16.589 -3.49,-2.606 -7.181,-5.153 -10.751,-7.616 -9.242,-6.379 -18.18,-12.551 -23.875,-19.668 3.021,1.569 6.391,2.408 9.814,2.408 3.322,0 6.692,-0.785 9.831,-2.438 0.025,-0.014 0.051,-0.026 0.076,-0.042 0.357,-0.205 8.76,-5.148 9.96,-15.828 0.484,-4.33 0.819,-8.803 1.143,-13.129 0.827,-11.06 1.632,-21.76 4.799,-30.221 0.421,6.446 3.773,12.623 9.598,16.398 0.025,0.016 0.05,0.031 0.075,0.045 0.249,0.149 4.493,2.629 10.438,2.629 2.501,0 5.305,-0.439 8.238,-1.676 4.104,-1.729 8.325,-3.701 12.406,-5.607 7.42,-3.465 14.666,-6.846 21.349,-8.959 -3.747,3.818 -6.064,9.045 -6.064,14.805 0,0.029 0.001,0.059 0.002,0.088 0.015,0.412 0.467,10.15 9.355,16.191 3.604,2.45 7.403,4.831 11.077,7.135 9.372,5.873 18.437,11.562 24.446,18.283 -0.895,-0.393 -1.819,-0.733 -2.776,-1.005 z"
           id="path634"
           inkscape:connector-curvature="0"
           style="fill:#f0f9ed" /></g><path
         d="m 129.357,113.299 c 0,0 3.584,-2.775 3.584,-10.143 0,-12.834 -13.399,-12.885 -15.836,-12.885 -2.514,0 -8.881,0 -19.09,0 -10.21,0 -11.16,8.264 -11.16,11.563 0,3.299 2.523,3.833 3.616,3.833 1.093,0 3.542,-0.631 3.542,-3.06 0,-3.713 1.395,-4.496 4.085,-4.496 3.42,0 3.694,3.058 3.694,5.167 0,1.294 0,21.088 0,24.955 0,1.443 -0.532,2.327 -1.201,2.869 -1.123,0.912 -2.629,0.855 -2.629,0.855 0,0 -1.43,0 -2.783,0 -1.988,0 -4.372,1.768 -4.372,4.813 0,3.044 2.929,3.083 2.929,3.083 0,0 23.1,0 28.307,0 7.786,0 13.564,-5.097 13.564,-13.862 0,-8.765 -6.25,-12.692 -6.25,-12.692 z m -5.087,-9.849 c 0,5.62 -1.813,7.043 -5.32,7.043 -1.662,0 -3.656,0 -5.296,0 -0.395,-0.018 -1.37,-0.121 -2.142,-0.724 -0.564,-0.44 -1.019,-1.148 -1.057,-2.282 v -5.806 0 -0.013 -0.082 c 0.005,-0.348 0.077,-1.578 0.822,-2.534 0.514,-0.657 1.349,-1.184 2.699,-1.2 1.008,0 2.073,0 2.962,0 2.527,0 7.332,0.262 7.332,5.598 z m -4.698,28.582 -6.084,0.004 c -0.529,-0.088 -1.236,-0.291 -1.834,-0.758 -0.653,-0.51 -1.176,-1.337 -1.199,-2.671 v -7.741 c 0.01,-0.351 0.093,-1.386 0.726,-2.196 0.46,-0.591 1.211,-1.06 2.436,-1.06 v 0 h 5.084 c 0,0 7.61,-0.28 7.61,7.402 0,5.918 -3.598,6.939 -6.739,7.02 z"
         id="path638"
         inkscape:connector-curvature="0"
         style="fill:#ffdea5" /></g></g></svg>