<?xml version="1.0" encoding="UTF-8" standalone="no"?>
<!-- Generator: Adobe Illustrator 16.0.0, SVG Export Plug-In . SVG Version: 6.00 Build 0)  -->

<svg
   xmlns:dc="http://purl.org/dc/elements/1.1/"
   xmlns:cc="http://creativecommons.org/ns#"
   xmlns:rdf="http://www.w3.org/1999/02/22-rdf-syntax-ns#"
   xmlns:svg="http://www.w3.org/2000/svg"
   xmlns="http://www.w3.org/2000/svg"
   xmlns:sodipodi="http://sodipodi.sourceforge.net/DTD/sodipodi-0.dtd"
   xmlns:inkscape="http://www.inkscape.org/namespaces/inkscape"
   version="1.1"
   id="Vrstva_1"
   x="0px"
   y="0px"
   width="189.77051"
   height="75"
   viewBox="0 0 189.77051 75"
   enable-background="new 0 0 474.293 238"
   xml:space="preserve"
   sodipodi:docname="logo-footer.svg"
   inkscape:version="0.92.1 r15371"><metadata
     id="metadata148"><rdf:RDF><cc:Work
         rdf:about=""><dc:format>image/svg+xml</dc:format><dc:type
           rdf:resource="http://purl.org/dc/dcmitype/StillImage" /><dc:title></dc:title></cc:Work></rdf:RDF></metadata><defs
     id="defs146" /><sodipodi:namedview
     pagecolor="#ffffff"
     bordercolor="#666666"
     borderopacity="1"
     objecttolerance="10"
     gridtolerance="10"
     guidetolerance="10"
     inkscape:pageopacity="0"
     inkscape:pageshadow="2"
     inkscape:window-width="1600"
     inkscape:window-height="840"
     id="namedview144"
     showgrid="false"
     fit-margin-top="0"
     fit-margin-left="0"
     fit-margin-right="0"
     fit-margin-bottom="0"
     inkscape:zoom="2.201171"
     inkscape:cx="203.9161"
     inkscape:cy="81.88"
     inkscape:window-x="0"
     inkscape:window-y="0"
     inkscape:window-maximized="1"
     inkscape:current-layer="Vrstva_1" /><g
     id="g141"
     transform="matrix(0.4636594,0,0,0.4636594,-15.407588,-18.139901)"><g
       id="g127"><path
         d="m 213.65,68.943 1.148,3.115 c 0.784,2.159 1.979,5.376 3.586,9.652 l 2.1,5.657 c 0.784,2.118 1.484,3.983 2.102,5.597 l 1.934,5.083 2.605,6.898 c 0.802,-2.099 1.661,-4.397 2.576,-6.898 l 1.905,-5.083 2.073,-5.597 1.26,-3.328 0.869,-2.329 c 1.121,-3.006 2.307,-6.223 3.559,-9.652 l 1.119,-3.115 v 0.029 c 0.205,-0.604 0.607,-0.907 1.205,-0.907 h 2.969 c 0.672,0 1.009,0.232 1.009,0.696 0,0.06 -0.038,0.292 -0.112,0.695 l -16.332,42.689 -0.056,0.151 0.028,-0.091 c -0.113,0.262 -0.233,0.459 -0.365,0.59 -0.129,0.133 -0.383,0.197 -0.756,0.197 h -1.877 c -0.373,0 -0.626,-0.061 -0.756,-0.182 -0.131,-0.121 -0.252,-0.313 -0.364,-0.575 l -0.057,-0.15 -16.443,-42.63 c 0,-0.02 -0.019,-0.07 -0.056,-0.151 -0.02,-0.062 -0.028,-0.242 -0.028,-0.544 0,-0.464 0.326,-0.696 0.979,-0.696 h 3.025 c 0.544,0.001 0.927,0.293 1.151,0.879 z"
         id="path99"
         inkscape:connector-curvature="0"
         style="fill:#f0f9ed" /><path
         d="m 254.072,84.584 v 27.079 c 0,0.887 -0.411,1.33 -1.232,1.33 h -2.324 c -0.859,0 -1.289,-0.443 -1.289,-1.33 V 84.584 c 0,-0.403 0.115,-0.726 0.35,-0.968 0.232,-0.242 0.528,-0.363 0.883,-0.363 h 2.297 c 0.393,0 0.71,0.126 0.953,0.378 0.241,0.253 0.362,0.57 0.362,0.953 z"
         id="path101"
         inkscape:connector-curvature="0"
         style="fill:#f0f9ed" /><path
         d="m 266.483,107.668 h 14.286 c 0.279,0 0.514,0.106 0.699,0.318 0.188,0.211 0.281,0.489 0.281,0.831 v 3.117 c 0,0.302 -0.088,0.555 -0.266,0.756 -0.178,0.202 -0.416,0.303 -0.715,0.303 h -18.153 c -0.654,0 -0.98,-0.352 -0.98,-1.059 V 84.373 c 0,-0.303 0.095,-0.555 0.28,-0.756 0.188,-0.201 0.439,-0.303 0.757,-0.303 h 2.829 c 0.281,0 0.514,0.09 0.701,0.271 0.186,0.182 0.28,0.444 0.28,0.787 v 23.296 z"
         id="path103"
         inkscape:connector-curvature="0"
         style="fill:#f0f9ed" /><path
         d="m 290.322,107.668 h 14.287 c 0.279,0 0.513,0.106 0.7,0.318 0.187,0.211 0.28,0.489 0.28,0.831 v 3.117 c 0,0.302 -0.09,0.555 -0.267,0.756 -0.179,0.202 -0.416,0.303 -0.714,0.303 h -18.153 c -0.655,0 -0.981,-0.352 -0.981,-1.059 V 84.373 c 0,-0.303 0.095,-0.555 0.281,-0.756 0.186,-0.201 0.439,-0.303 0.756,-0.303 h 2.83 c 0.279,0 0.514,0.09 0.699,0.271 0.188,0.182 0.281,0.444 0.281,0.787 v 23.296 z"
         id="path105"
         inkscape:connector-curvature="0"
         style="fill:#f0f9ed" /><path
         d="m 327.437,112.026 -0.757,-2.058 h -13.25 l -0.729,2.058 c -0.243,0.646 -0.662,0.968 -1.26,0.968 h -3.027 c -0.689,0 -1.035,-0.262 -1.035,-0.787 0,-0.281 0.008,-0.453 0.027,-0.514 l 0.055,-0.182 10.395,-27.229 0.084,-0.183 c 0.094,-0.241 0.215,-0.434 0.364,-0.575 0.149,-0.141 0.42,-0.211 0.813,-0.211 h 1.876 c 0.393,0 0.662,0.07 0.812,0.211 0.15,0.142 0.271,0.334 0.365,0.575 0,0.06 0.027,0.121 0.084,0.183 l 10.393,27.229 -0.027,-0.061 0.056,0.332 0.056,0.424 c 0,0.525 -0.346,0.787 -1.036,0.787 h -2.997 c -0.6,0 -0.896,0 -0.896,0 0,0 -0.124,-0.322 -0.366,-0.967 z m -7.369,-20.544 -4.734,13.161 h 9.44 z"
         id="path107"
         inkscape:connector-curvature="0"
         style="fill:#f0f9ed" /><path
         d="m 239.73,131.419 c 0,1.715 -0.327,3.217 -0.98,4.508 -0.616,1.149 -1.561,2.32 -2.829,3.51 2.054,1.131 3.622,2.571 4.706,4.326 1.289,2.139 1.933,4.871 1.933,8.199 0,2.058 -0.313,3.918 -0.938,5.582 -0.627,1.664 -1.508,3.102 -2.646,4.311 -1.103,1.172 -2.391,2.073 -3.867,2.709 -1.475,0.635 -3.035,0.953 -4.678,0.953 h -18.713 c -0.43,0 -0.775,-0.137 -1.037,-0.408 -0.262,-0.273 -0.392,-0.641 -0.392,-1.105 v -41.842 c 0,-0.504 0.126,-0.893 0.378,-1.165 0.252,-0.272 0.604,-0.409 1.051,-0.409 h 16.809 c 1.567,0 3.035,0.248 4.396,0.742 1.364,0.494 2.551,1.205 3.559,2.133 1.027,0.949 1.826,2.098 2.396,3.449 0.57,1.351 0.852,2.854 0.852,4.507 z m -4.846,0.031 c 0,-1.835 -0.598,-3.268 -1.792,-4.296 -1.121,-0.969 -2.653,-1.453 -4.596,-1.453 h -13.39 v 11.981 h 13.362 c 0.914,0 1.77,-0.136 2.564,-0.409 0.793,-0.271 1.469,-0.67 2.029,-1.193 1.215,-1.11 1.823,-2.653 1.823,-4.63 z m -4.482,11.315 h -15.296 v 17.578 h 15.296 c 0.951,0 1.867,-0.152 2.744,-0.455 0.877,-0.302 1.645,-0.775 2.298,-1.421 1.513,-1.493 2.269,-3.651 2.269,-6.475 0,-1.472 -0.195,-2.788 -0.588,-3.948 -0.393,-1.16 -0.943,-2.153 -1.652,-2.98 -0.654,-0.766 -1.42,-1.341 -2.299,-1.725 -0.877,-0.382 -1.802,-0.574 -2.772,-0.574 z"
         id="path109"
         inkscape:connector-curvature="0"
         style="fill:#f0f9ed" /><path
         d="m 252.785,150.752 h 11.149 c 0.279,0 0.509,0.102 0.687,0.302 0.176,0.203 0.265,0.475 0.265,0.817 v 3.177 c 0,0.303 -0.089,0.555 -0.265,0.757 -0.178,0.201 -0.407,0.302 -0.687,0.302 h -11.149 v 4.024 h 14.287 c 0.279,0 0.512,0.105 0.699,0.317 0.188,0.211 0.281,0.489 0.281,0.832 v 3.178 c 0,0.302 -0.09,0.555 -0.268,0.756 -0.177,0.201 -0.414,0.303 -0.713,0.303 h -18.35 c -0.523,-0.021 -0.785,-0.373 -0.785,-1.059 v -27.563 c 0,-0.707 0.326,-1.06 0.98,-1.06 h 17.537 c 0.279,0 0.509,0.102 0.687,0.303 0.178,0.202 0.267,0.454 0.267,0.757 v 3.176 c 0,0.344 -0.089,0.615 -0.267,0.817 -0.178,0.201 -0.407,0.303 -0.687,0.303 h -13.67 v 9.561 z"
         id="path111"
         inkscape:connector-curvature="0"
         style="fill:#f0f9ed" /><path
         d="m 277.576,160.191 h 14.287 c 0.279,0 0.514,0.107 0.7,0.318 0.187,0.212 0.28,0.489 0.28,0.832 v 3.117 c 0,0.302 -0.088,0.555 -0.266,0.756 -0.178,0.201 -0.417,0.303 -0.715,0.303 H 273.71 c -0.653,0 -0.979,-0.353 -0.979,-1.059 v -27.563 c 0,-0.303 0.092,-0.555 0.28,-0.757 0.185,-0.201 0.438,-0.303 0.755,-0.303 h 2.83 c 0.281,0 0.514,0.091 0.701,0.272 0.186,0.182 0.279,0.443 0.279,0.787 z"
         id="path113"
         inkscape:connector-curvature="0"
         style="fill:#f0f9ed" /><path
         d="m 294.524,136.804 7.368,20.544 7.367,-20.544 c 0.225,-0.645 0.645,-0.968 1.261,-0.968 h 2.997 c 0.69,0 1.037,0.263 1.037,0.786 l -0.057,0.424 -0.056,0.334 0.028,-0.061 -10.394,27.229 c -0.093,0.102 -0.159,0.201 -0.195,0.303 -0.095,0.263 -0.243,0.443 -0.448,0.545 -0.132,0.08 -0.338,0.121 -0.617,0.121 h -1.877 c -0.392,0 -0.662,-0.07 -0.813,-0.212 -0.15,-0.141 -0.271,-0.333 -0.364,-0.575 l -10.477,-27.41 c 0,-0.021 -0.019,-0.07 -0.057,-0.152 -0.019,-0.061 -0.028,-0.242 -0.028,-0.545 0,-0.523 0.346,-0.786 1.037,-0.786 h 3.025 c 0.28,0 0.533,0.087 0.757,0.257 0.226,0.171 0.394,0.409 0.506,0.71 z"
         id="path115"
         inkscape:connector-curvature="0"
         style="fill:#f0f9ed" /><path
         d="m 323.098,150.752 h 11.15 c 0.279,0 0.508,0.102 0.686,0.302 0.178,0.203 0.266,0.475 0.266,0.817 v 3.177 c 0,0.303 -0.088,0.555 -0.266,0.757 -0.178,0.201 -0.406,0.302 -0.686,0.302 h -11.15 v 4.024 h 14.287 c 0.281,0 0.514,0.105 0.701,0.317 0.186,0.211 0.28,0.489 0.28,0.832 v 3.178 c 0,0.302 -0.089,0.555 -0.267,0.756 -0.178,0.201 -0.416,0.303 -0.715,0.303 h -18.35 c -0.521,-0.021 -0.783,-0.373 -0.783,-1.059 v -27.563 c 0,-0.707 0.326,-1.06 0.98,-1.06 h 17.537 c 0.279,0 0.508,0.102 0.686,0.303 0.177,0.202 0.266,0.454 0.266,0.757 v 3.176 c 0,0.344 -0.089,0.615 -0.266,0.817 -0.178,0.201 -0.406,0.303 -0.686,0.303 h -13.672 v 9.561 z"
         id="path117"
         inkscape:connector-curvature="0"
         style="fill:#f0f9ed" /><path
         d="m 343.996,135.777 h 9.076 c 1.867,0.04 3.613,0.443 5.238,1.209 1.625,0.768 3.055,1.826 4.287,3.178 1.232,1.351 2.184,2.925 2.857,4.719 0.672,1.796 1.008,3.702 1.008,5.719 0,1.977 -0.332,3.868 -0.995,5.672 -0.663,1.807 -1.593,3.404 -2.787,4.797 -1.214,1.391 -2.634,2.48 -4.258,3.267 -1.624,0.787 -3.353,1.181 -5.183,1.181 h -9.44 c -0.522,-0.021 -0.784,-0.373 -0.784,-1.059 v -27.623 c 0.001,-0.709 0.327,-1.06 0.981,-1.06 z m 4.006,5.354 v 19 h 5.238 c 1.25,0 2.391,-0.231 3.418,-0.696 1.025,-0.463 1.914,-1.129 2.66,-1.996 0.729,-0.848 1.29,-1.856 1.682,-3.025 0.393,-1.17 0.588,-2.44 0.588,-3.813 0,-1.311 -0.205,-2.547 -0.615,-3.706 -0.412,-1.16 -0.98,-2.173 -1.709,-3.041 -0.767,-0.867 -1.672,-1.538 -2.718,-2.011 -1.046,-0.475 -2.204,-0.712 -3.474,-0.712 z"
         id="path119"
         inkscape:connector-curvature="0"
         style="fill:#f0f9ed" /><path
         d="m 376.436,150.752 h 11.149 c 0.28,0 0.509,0.102 0.687,0.302 0.176,0.203 0.266,0.475 0.266,0.817 v 3.177 c 0,0.303 -0.09,0.555 -0.266,0.757 -0.178,0.201 -0.406,0.302 -0.687,0.302 h -11.149 v 4.024 h 14.287 c 0.279,0 0.512,0.105 0.7,0.317 0.187,0.211 0.28,0.489 0.28,0.832 v 3.178 c 0,0.302 -0.09,0.555 -0.268,0.756 -0.178,0.201 -0.414,0.303 -0.713,0.303 h -18.35 c -0.523,-0.021 -0.785,-0.373 -0.785,-1.059 v -27.563 c 0,-0.707 0.326,-1.06 0.98,-1.06 h 17.537 c 0.28,0 0.509,0.102 0.687,0.303 0.177,0.202 0.267,0.454 0.267,0.757 v 3.176 c 0,0.344 -0.09,0.615 -0.267,0.817 -0.178,0.201 -0.406,0.303 -0.687,0.303 h -13.67 v 9.561 z"
         id="path121"
         inkscape:connector-curvature="0"
         style="fill:#f0f9ed" /><path
         d="m 417.193,164.488 0.057,0.394 c 0,0.424 -0.168,0.636 -0.504,0.636 H 412.6 c -0.41,0 -0.736,-0.263 -0.98,-0.787 l -2.633,-5.719 c -0.784,0.223 -1.541,0.334 -2.27,0.334 h -5.49 v 4.841 c 0,0.888 -0.411,1.331 -1.232,1.331 h -2.325 c -0.859,0 -1.288,-0.443 -1.288,-1.331 v -27.079 c 0,-0.402 0.115,-0.726 0.35,-0.968 0.232,-0.242 0.527,-0.362 0.883,-0.362 h 2.297 6.807 c 1.476,0 2.876,0.297 4.201,0.892 1.326,0.596 2.495,1.438 3.504,2.526 1.008,1.089 1.796,2.355 2.367,3.797 0.568,1.443 0.854,2.971 0.854,4.584 0,1.814 -0.363,3.51 -1.093,5.082 -0.728,1.574 -1.728,2.916 -2.997,4.024 z m -5.027,-14.266 c 0.309,-0.856 0.462,-1.759 0.462,-2.707 0,-2.199 -0.7,-3.943 -2.101,-5.234 -1.326,-1.17 -3.129,-1.755 -5.406,-1.755 h -3.895 v 13.948 h 5.239 c 0.858,0 1.661,-0.177 2.408,-0.529 0.747,-0.354 1.409,-0.853 1.989,-1.498 0.562,-0.625 0.996,-1.367 1.304,-2.225 z"
         id="path123"
         inkscape:connector-curvature="0"
         style="fill:#f0f9ed" /><path
         d="M 427.252,150.752 H 438.4 c 0.281,0 0.509,0.102 0.687,0.302 0.177,0.203 0.267,0.475 0.267,0.817 v 3.177 c 0,0.303 -0.09,0.555 -0.267,0.757 -0.178,0.201 -0.405,0.302 -0.687,0.302 h -11.148 v 4.024 h 14.287 c 0.279,0 0.513,0.105 0.699,0.317 0.188,0.211 0.281,0.489 0.281,0.832 v 3.178 c 0,0.302 -0.09,0.555 -0.268,0.756 -0.177,0.201 -0.416,0.303 -0.713,0.303 h -18.351 c -0.522,-0.021 -0.784,-0.373 -0.784,-1.059 v -27.563 c 0,-0.707 0.327,-1.06 0.98,-1.06 h 17.537 c 0.28,0 0.509,0.102 0.688,0.303 0.176,0.202 0.265,0.454 0.265,0.757 v 3.176 c 0,0.344 -0.089,0.615 -0.265,0.817 -0.179,0.201 -0.407,0.303 -0.688,0.303 h -13.67 v 9.561 z"
         id="path125"
         inkscape:connector-curvature="0"
         style="fill:#f0f9ed" /></g><path
       d="m 192.735,134.496 c -0.773,-12.183 -9.471,-20.984 -20.242,-28.693 10.504,-0.504 14.996,-8.546 15.91,-12.861 0.256,-1.205 -0.439,-2.408 -1.609,-2.789 -2.93,-0.951 -5.748,-1.435 -8.376,-1.435 -8.866,0 -14.273,5.581 -16.72,9.937 -0.935,-0.589 -1.868,-1.174 -2.8,-1.758 -3.638,-2.28 -7.398,-4.638 -10.929,-7.037 -6.664,-4.53 -7.215,-11.74 -7.249,-12.352 0.03,-8.984 7.349,-16.285 16.339,-16.285 1.884,0 3.673,0.42 5.279,1.165 1.076,0.542 2.101,1.214 3.071,2.03 0.029,0.025 0.063,0.041 0.092,0.064 2.546,2.305 4.148,5.635 4.148,9.33 0,5.289 -4.303,9.591 -9.592,9.591 -3.965,0 -7.189,-3.226 -7.189,-7.19 0,-2.907 2.363,-5.271 5.271,-5.271 1.542,0 2.906,0.927 3.475,2.36 0.489,1.236 1.887,1.841 3.125,1.352 1.235,-0.489 1.841,-1.888 1.352,-3.124 -1.301,-3.282 -4.422,-5.402 -7.951,-5.402 -5.563,0 -10.087,4.524 -10.087,10.086 0,6.619 5.386,12.005 12.005,12.005 7.943,0 14.405,-6.462 14.405,-14.405 0,-6.918 -4.058,-12.906 -9.921,-15.71 C 155.668,53.6 144.57,56.259 133,60.926 c 1.553,-2.648 2.399,-5.374 2.521,-8.163 0.32,-7.261 -4.475,-12.088 -4.68,-12.29 -0.875,-0.865 -2.262,-0.931 -3.216,-0.152 -12.434,10.163 -8.754,21.151 -6.326,25.768 -0.906,0.422 -1.813,0.845 -2.716,1.267 -4.041,1.889 -8.22,3.84 -12.239,5.533 -7.428,3.129 -13.774,-0.328 -14.309,-0.633 -7.524,-4.909 -9.673,-15.021 -4.784,-22.567 0.871,-1.343 1.968,-2.483 3.229,-3.388 0.345,-0.206 0.693,-0.408 1.056,-0.6 0.182,-0.096 0.346,-0.215 0.492,-0.348 0.986,-0.51 2.045,-0.894 3.16,-1.131 3.289,-0.703 6.654,-0.083 9.477,1.746 4.438,2.875 5.709,8.825 2.834,13.264 -2.156,3.326 -6.617,4.279 -9.945,2.124 -1.182,-0.766 -1.994,-1.945 -2.288,-3.322 -0.294,-1.378 -0.034,-2.785 0.731,-3.967 0.836,-1.29 2.352,-1.933 3.859,-1.636 1.304,0.259 2.569,-0.591 2.828,-1.896 0.257,-1.304 -0.593,-2.568 -1.896,-2.826 -3.451,-0.682 -6.918,0.787 -8.833,3.74 -1.464,2.26 -1.962,4.957 -1.397,7.591 0.563,2.636 2.118,4.892 4.379,6.356 5.555,3.6 13.002,2.009 16.604,-3.547 4.317,-6.666 2.408,-15.603 -4.256,-19.922 C 103.383,39.4 98.73,38.542 94.183,39.513 91.876,40.006 89.74,40.941 87.862,42.249 77.348,48.603 73.601,60.455 71.8,73.644 67.323,66.058 60.469,65.04 57.126,65.04 c -2.338,0 -3.961,0.442 -4.139,0.492 -1.184,0.338 -1.924,1.514 -1.713,2.727 2.799,16.165 14.793,18.063 19.244,18.195 -0.086,1.111 -0.17,2.225 -0.252,3.334 -0.32,4.281 -0.651,8.709 -1.128,12.951 -0.899,8.008 -7.019,11.855 -7.545,12.173 -7.962,4.163 -17.833,1.095 -22.026,-6.857 -1.568,-2.976 -1.883,-6.384 -0.89,-9.596 0.993,-3.212 3.181,-5.845 6.154,-7.413 2.267,-1.195 4.862,-1.436 7.31,-0.68 2.447,0.758 4.453,2.423 5.647,4.689 1.849,3.508 0.5,7.865 -3.007,9.715 -1.244,0.658 -2.672,0.789 -4.018,0.373 -1.346,-0.416 -2.447,-1.331 -3.104,-2.578 -0.721,-1.366 -0.536,-3.006 0.471,-4.178 0.867,-1.009 0.752,-2.528 -0.258,-3.395 -1.008,-0.867 -2.526,-0.752 -3.395,0.257 -2.304,2.681 -2.727,6.435 -1.078,9.562 2.594,4.92 8.705,6.813 13.627,4.218 5.855,-3.089 8.107,-10.364 5.02,-16.22 -1.795,-3.404 -4.807,-5.904 -8.482,-7.042 -3.678,-1.138 -7.575,-0.775 -10.979,1.02 -4.113,2.168 -7.135,5.808 -8.51,10.248 -0.465,1.506 -0.718,3.042 -0.771,4.576 -0.022,0.116 -0.039,0.233 -0.046,0.354 -0.58,13.133 8.055,22.815 19.013,31.403 -0.023,0 -0.049,-0.002 -0.072,-0.002 -10.636,0 -15.48,7.982 -16.556,12.203 -0.304,1.194 0.342,2.423 1.496,2.852 3.208,1.19 6.297,1.793 9.18,1.793 9.233,0 14.178,-5.923 16.264,-9.343 0.932,0.646 1.866,1.291 2.798,1.934 3.534,2.438 7.188,4.959 10.606,7.512 6.459,4.823 6.689,12.051 6.695,12.662 -0.205,4.338 -2.082,8.342 -5.289,11.275 -3.219,2.947 -7.393,4.46 -11.752,4.271 -3.359,-0.149 -6.461,-1.597 -8.731,-4.078 -2.27,-2.481 -3.439,-5.696 -3.29,-9.057 0.232,-5.282 4.717,-9.382 10.004,-9.157 3.961,0.175 7.041,3.541 6.866,7.502 -0.063,1.406 -0.669,2.705 -1.706,3.656 -1.039,0.949 -2.385,1.438 -3.793,1.377 -1.546,-0.068 -2.869,-1.059 -3.371,-2.521 -0.432,-1.257 -1.801,-1.926 -3.059,-1.495 -1.258,0.432 -1.927,1.802 -1.495,3.059 1.149,3.347 4.177,5.61 7.712,5.768 2.689,0.122 5.268,-0.816 7.256,-2.636 1.986,-1.819 3.146,-4.303 3.266,-6.994 0.143,-3.204 -0.973,-6.271 -3.137,-8.637 -2.166,-2.365 -5.122,-3.746 -8.326,-3.889 -7.936,-0.342 -14.676,5.82 -15.027,13.755 -0.205,4.645 1.41,9.091 4.549,12.521 1.101,1.203 2.346,2.227 3.693,3.062 0.128,0.126 0.268,0.243 0.427,0.341 11.157,6.879 23.776,4.086 36.572,-1.277 -1.441,2.614 -2.211,5.291 -2.285,8.016 -0.2,7.266 4.675,12.013 4.883,12.211 0.464,0.443 1.063,0.668 1.664,0.668 0.551,0 1.104,-0.189 1.554,-0.568 12.175,-10.294 8.456,-21.137 5.951,-25.771 0.992,-0.486 1.982,-0.975 2.972,-1.462 3.85,-1.9 7.83,-3.865 11.725,-5.609 7.354,-3.297 13.778,0.02 14.319,0.313 7.633,4.74 10.005,14.801 5.286,22.455 -0.841,1.361 -1.911,2.525 -3.151,3.459 -0.34,0.213 -0.684,0.424 -1.041,0.622 -0.182,0.101 -0.342,0.224 -0.486,0.36 -0.974,0.53 -2.024,0.938 -3.134,1.2 -3.271,0.777 -6.649,0.231 -9.513,-1.533 -4.501,-2.776 -5.905,-8.696 -3.13,-13.198 2.08,-3.374 6.521,-4.426 9.896,-2.346 1.197,0.738 2.037,1.9 2.361,3.27 0.326,1.371 0.098,2.785 -0.642,3.984 -0.81,1.313 -2.315,1.987 -3.833,1.718 -1.309,-0.233 -2.559,0.642 -2.79,1.95 -0.232,1.31 0.642,2.56 1.95,2.791 3.475,0.613 6.918,-0.928 8.771,-3.933 1.412,-2.293 1.85,-5 1.229,-7.622 -0.621,-2.621 -2.227,-4.843 -4.52,-6.256 -5.636,-3.475 -13.046,-1.717 -16.521,3.918 -4.17,6.761 -2.061,15.652 4.701,19.822 2.781,1.714 5.913,2.596 9.103,2.596 1.346,0 2.705,-0.158 4.049,-0.477 2.293,-0.544 4.41,-1.526 6.258,-2.878 10.382,-6.597 13.858,-18.548 15.36,-31.789 4.295,7.076 10.553,8.37 14.535,8.37 2.609,0 4.438,-0.553 4.64,-0.615 1.174,-0.371 1.88,-1.566 1.635,-2.773 -3.22,-15.932 -14.864,-17.651 -19.721,-17.651 -0.036,0 -0.069,0.001 -0.105,0.001 0.063,-1.155 0.124,-2.313 0.185,-3.467 0.225,-4.287 0.455,-8.719 0.836,-12.969 0.719,-8.027 6.753,-12.012 7.271,-12.34 3.803,-2.1 8.194,-2.6 12.376,-1.408 4.195,1.197 7.676,3.957 9.797,7.771 0.76,1.362 1.234,2.807 1.449,4.266 0.027,0.448 0.043,0.9 0.043,1.356 0,0.224 0.032,0.439 0.09,0.645 -0.059,4.365 -2.382,8.585 -6.463,10.854 -2.238,1.246 -4.828,1.545 -7.293,0.843 -2.464,-0.703 -4.505,-2.323 -5.751,-4.562 -0.935,-1.679 -1.158,-3.621 -0.631,-5.468 0.525,-1.847 1.74,-3.378 3.42,-4.312 1.229,-0.684 2.653,-0.85 4.007,-0.463 1.354,0.387 2.477,1.275 3.16,2.508 0.752,1.349 0.605,2.992 -0.374,4.186 -0.843,1.027 -0.692,2.544 0.335,3.387 1.029,0.844 2.546,0.693 3.389,-0.334 2.24,-2.732 2.578,-6.493 0.858,-9.58 -1.308,-2.354 -3.456,-4.058 -6.048,-4.796 -2.59,-0.739 -5.313,-0.425 -7.668,0.886 -2.804,1.559 -4.831,4.115 -5.71,7.199 -0.879,3.083 -0.504,6.325 1.055,9.127 1.87,3.363 4.938,5.797 8.638,6.852 3.701,1.055 7.592,0.607 10.953,-1.264 6.415,-3.569 9.689,-10.618 8.79,-17.489 z M 178.418,93.532 c 1.418,0 2.925,0.181 4.499,0.538 -1.275,2.689 -4.408,6.942 -11.47,6.942 -1.594,0 -3.322,-0.212 -5.164,-0.632 1.696,-2.728 5.371,-6.848 12.135,-6.848 z M 128.816,45.709 c 0.956,1.544 2.038,3.97 1.894,6.9 -0.176,3.532 -2.05,7.059 -5.58,10.511 -1.667,-3.449 -3.464,-10.369 3.686,-17.411 z M 56.55,69.867 c 0.184,-0.008 0.377,-0.012 0.576,-0.012 4.51,0 10.196,2.122 12.769,11.756 C 65.469,81.315 59.051,79.183 56.55,69.867 Z m -10.229,75.534 c -1.618,0 -3.342,-0.247 -5.146,-0.734 1.335,-2.548 4.463,-6.484 11.026,-6.484 1.792,0 3.753,0.287 5.849,0.856 -1.743,2.57 -5.391,6.362 -11.729,6.362 z m 52.269,49.381 c -0.974,-1.517 -2.09,-3.905 -2.011,-6.812 0.098,-3.544 1.905,-7.111 5.382,-10.632 0.584,1.186 1.195,2.776 1.469,4.618 0.675,4.573 -0.951,8.878 -4.84,12.826 z m 71.94,-25.525 c -0.298,0.021 -0.618,0.033 -0.956,0.033 -4.365,0 -9.93,-2.061 -12.71,-11.395 4.292,0.183 10.88,2.079 13.666,11.362 z m 7.479,-51.004 c -5.432,-1.549 -11.145,-0.891 -16.083,1.855 -0.025,0.015 -0.051,0.029 -0.075,0.045 -0.354,0.213 -8.644,5.342 -9.603,16.046 -0.389,4.339 -0.623,8.817 -0.849,13.147 -0.579,11.076 -1.146,21.794 -4.121,30.324 -0.566,-6.435 -4.055,-12.535 -9.964,-16.178 -0.024,-0.016 -0.05,-0.031 -0.075,-0.045 -0.357,-0.204 -8.885,-4.93 -18.693,-0.535 -3.976,1.782 -7.997,3.768 -11.886,5.686 -10.01,4.94 -19.696,9.715 -28.64,11.256 0.918,-0.609 1.798,-1.289 2.627,-2.048 4.168,-3.815 6.601,-9.025 6.85,-14.67 0.002,-0.029 0.002,-0.059 0.002,-0.087 0.004,-0.412 -0.018,-10.161 -8.631,-16.59 -3.49,-2.606 -7.181,-5.153 -10.75,-7.616 -9.242,-6.378 -18.18,-12.552 -23.875,-19.669 3.021,1.57 6.391,2.41 9.814,2.41 3.322,-0.002 6.692,-0.785 9.83,-2.439 0.025,-0.014 0.051,-0.027 0.076,-0.043 0.357,-0.204 8.76,-5.147 9.96,-15.826 0.485,-4.331 0.819,-8.805 1.144,-13.129 0.826,-11.061 1.631,-21.761 4.798,-30.223 0.421,6.447 3.773,12.623 9.599,16.398 0.024,0.017 0.05,0.031 0.075,0.046 0.248,0.149 4.492,2.629 10.438,2.629 2.501,0 5.304,-0.439 8.237,-1.675 4.105,-1.73 8.326,-3.701 12.407,-5.608 7.42,-3.466 14.666,-6.845 21.348,-8.959 -3.746,3.818 -6.064,9.046 -6.064,14.806 0,0.029 0.002,0.058 0.002,0.087 0.016,0.411 0.468,10.15 9.356,16.192 3.604,2.449 7.402,4.83 11.077,7.134 9.372,5.873 18.437,11.562 24.445,18.284 -0.893,-0.393 -1.819,-0.733 -2.776,-1.005 z"
       id="path129"
       inkscape:connector-curvature="0"
       style="fill:#f0f9ed" /><path
       d="m 128.694,117.792 c 0,0 3.584,-3.192 3.584,-9.025 0,-12.832 -11.209,-14.002 -15.836,-14.002 -2.514,0 -8.882,0 -19.091,0 -10.21,0 -11.159,8.264 -11.159,11.563 0,3.299 2.522,3.833 3.616,3.833 1.092,0 3.541,-0.631 3.541,-3.06 0,-3.713 1.395,-4.496 4.086,-4.496 3.42,0 3.694,3.058 3.694,5.167 0,1.294 0,21.088 0,24.955 0,1.443 -0.532,2.327 -1.201,2.869 -1.124,0.912 -2.629,0.855 -2.629,0.855 0,0 -1.431,0 -2.784,0 -1.988,0 -4.371,1.768 -4.371,4.813 0,3.044 2.928,3.083 2.928,3.083 0,0 23.1,0 28.307,0 7.786,0 13.565,-5.097 13.565,-13.862 0,-8.765 -6.25,-12.693 -6.25,-12.693 z m -5.088,-9.849 c 0,5.62 -1.813,7.043 -5.321,7.043 -1.662,0 -3.656,0 -5.295,0 -0.395,-0.018 -1.371,-0.121 -2.143,-0.724 -0.564,-0.44 -1.018,-1.148 -1.056,-2.282 v -5.806 0 c 0,0 0,-0.005 0,-0.013 v -0.082 c 0.005,-0.348 0.077,-1.578 0.822,-2.534 0.513,-0.657 1.349,-1.184 2.698,-1.2 1.008,0 2.074,0 2.963,0 2.527,0 7.332,0.262 7.332,5.598 z m -4.698,28.582 -6.083,0.004 c -0.53,-0.088 -1.236,-0.291 -1.834,-0.758 -0.653,-0.51 -1.177,-1.337 -1.199,-2.671 v -7.741 c 0.009,-0.351 0.093,-1.386 0.726,-2.196 0.459,-0.591 1.211,-1.06 2.436,-1.06 v 0 h 5.084 c 0,0 7.61,-0.28 7.61,7.402 -10e-4,5.918 -3.598,6.939 -6.74,7.02 z"
       id="path131"
       inkscape:connector-curvature="0"
       style="fill:#f0f9ed" /><polygon
       points="357.86,100.044 359.328,106.529 353.614,103.129 347.899,106.529 349.368,100.044 344.368,95.661 350.989,95.052 353.614,88.943 356.238,95.052 362.859,95.661 "
       id="polygon133"
       style="fill:#f0f9ed" /><polygon
       points="384.293,100.044 385.761,106.529 380.047,103.129 374.333,106.529 375.801,100.044 370.801,95.661 377.422,95.052 380.047,88.943 382.671,95.052 389.292,95.661 "
       id="polygon135"
       style="fill:#f0f9ed" /><polygon
       points="410.727,100.044 412.194,106.529 406.479,103.129 400.766,106.529 402.233,100.044 397.234,95.661 403.855,95.052 406.479,88.943 409.104,95.052 415.726,95.661 "
       id="polygon137"
       style="fill:#f0f9ed" /><polygon
       points="437.159,100.044 438.627,106.529 432.913,103.129 427.199,106.529 428.667,100.044 423.667,95.661 430.288,95.052 432.913,88.943 435.537,95.052 442.158,95.661 "
       id="polygon139"
       style="fill:#f0f9ed" /></g></svg>