<?xml version="1.0" encoding="UTF-8" standalone="no"?>
<!-- Generator: Adobe Illustrator 16.0.0, SVG Export Plug-In . SVG Version: 6.00 Build 0)  -->

<svg
   xmlns:dc="http://purl.org/dc/elements/1.1/"
   xmlns:cc="http://creativecommons.org/ns#"
   xmlns:rdf="http://www.w3.org/1999/02/22-rdf-syntax-ns#"
   xmlns:svg="http://www.w3.org/2000/svg"
   xmlns="http://www.w3.org/2000/svg"
   xmlns:sodipodi="http://sodipodi.sourceforge.net/DTD/sodipodi-0.dtd"
   xmlns:inkscape="http://www.inkscape.org/namespaces/inkscape"
   version="1.1"
   id="Vrstva_1"
   x="0px"
   y="0px"
   width="346.29059"
   height="30"
   viewBox="0 0 346.29059 30"
   enable-background="new 0 0 730 153"
   xml:space="preserve"
   sodipodi:docname="logo.svg"
   inkscape:version="0.92.1 r15371"><metadata
     id="metadata45"><rdf:RDF><cc:Work
         rdf:about=""><dc:format>image/svg+xml</dc:format><dc:type
           rdf:resource="http://purl.org/dc/dcmitype/StillImage" /><dc:title></dc:title></cc:Work></rdf:RDF></metadata><defs
     id="defs43" /><sodipodi:namedview
     pagecolor="#ffffff"
     bordercolor="#666666"
     borderopacity="1"
     objecttolerance="10"
     gridtolerance="10"
     guidetolerance="10"
     inkscape:pageopacity="0"
     inkscape:pageshadow="2"
     inkscape:window-width="1600"
     inkscape:window-height="840"
     id="namedview41"
     showgrid="false"
     fit-margin-top="0"
     fit-margin-left="0"
     fit-margin-right="0"
     fit-margin-bottom="0"
     inkscape:zoom="0.56575342"
     inkscape:cx="321.82311"
     inkscape:cy="26.338998"
     inkscape:window-x="0"
     inkscape:window-y="0"
     inkscape:window-maximized="1"
     inkscape:current-layer="Vrstva_1" /><g
     id="g85"
     transform="scale(0.53741289)"><g
       transform="translate(-46.712,-47.016)"
       id="g30"><path
         style="fill:#ffdea5"
         inkscape:connector-curvature="0"
         id="path2"
         d="m 53.117,48.107 1.425,3.873 c 0.977,2.681 2.461,6.677 4.456,11.99 L 61.61,71 c 0.972,2.632 1.845,4.951 2.607,6.956 l 2.402,6.313 3.238,8.571 c 0.997,-2.606 2.066,-5.464 3.199,-8.571 L 75.425,77.956 78,71 l 1.567,-4.136 1.08,-2.894 c 1.391,-3.732 2.865,-7.729 4.422,-11.99 l 1.391,-3.873 v 0.039 c 0.253,-0.753 0.753,-1.13 1.496,-1.13 h 3.689 c 0.838,0 1.255,0.289 1.255,0.867 0,0.072 -0.049,0.363 -0.141,0.862 l -20.291,53.04 -0.068,0.188 0.034,-0.112 c -0.139,0.326 -0.29,0.57 -0.451,0.732 -0.166,0.165 -0.475,0.244 -0.943,0.244 h -2.332 c -0.463,0 -0.777,-0.075 -0.938,-0.224 -0.163,-0.151 -0.314,-0.39 -0.453,-0.717 L 67.246,101.709 46.814,48.746 c 0,-0.023 -0.022,-0.085 -0.068,-0.188 -0.022,-0.075 -0.034,-0.3 -0.034,-0.675 0,-0.578 0.404,-0.867 1.218,-0.867 h 3.759 c 0.671,0.001 1.145,0.366 1.428,1.091 z" /><path
         style="fill:#ffdea5"
         inkscape:connector-curvature="0"
         id="path4"
         d="m 103.339,67.542 v 33.644 c 0,1.103 -0.509,1.653 -1.532,1.653 H 98.92 c -1.067,0 -1.604,-0.551 -1.604,-1.653 V 67.542 c 0,-0.5 0.146,-0.903 0.438,-1.203 0.285,-0.301 0.653,-0.45 1.094,-0.45 h 2.853 c 0.489,0 0.884,0.155 1.184,0.47 0.303,0.312 0.454,0.708 0.454,1.183 z" /><path
         style="fill:#ffdea5"
         inkscape:connector-curvature="0"
         id="path6"
         d="m 118.759,96.223 h 17.75 c 0.351,0 0.638,0.132 0.872,0.396 0.231,0.262 0.346,0.606 0.346,1.034 v 3.87 c 0,0.376 -0.107,0.691 -0.329,0.941 -0.219,0.251 -0.517,0.375 -0.889,0.375 h -22.554 c -0.812,0 -1.218,-0.438 -1.218,-1.316 V 67.28 c 0,-0.378 0.117,-0.689 0.348,-0.941 0.234,-0.25 0.546,-0.375 0.94,-0.375 h 3.513 c 0.351,0 0.641,0.112 0.872,0.339 0.232,0.224 0.349,0.55 0.349,0.978 z" /><path
         style="fill:#ffdea5"
         inkscape:connector-curvature="0"
         id="path8"
         d="m 148.378,96.223 h 17.749 c 0.349,0 0.638,0.132 0.873,0.396 0.229,0.262 0.346,0.606 0.346,1.034 v 3.87 c 0,0.376 -0.11,0.691 -0.329,0.941 -0.224,0.251 -0.516,0.375 -0.889,0.375 h -22.551 c -0.816,0 -1.223,-0.438 -1.223,-1.316 V 67.28 c 0,-0.378 0.119,-0.689 0.351,-0.941 0.232,-0.25 0.546,-0.375 0.94,-0.375 h 3.514 c 0.351,0 0.641,0.112 0.87,0.339 0.234,0.224 0.351,0.55 0.351,0.978 v 28.942 z" /><path
         style="fill:#ffdea5"
         inkscape:connector-curvature="0"
         id="path10"
         d="m 194.492,101.635 -0.943,-2.554 h -16.462 l -0.904,2.554 c -0.302,0.806 -0.823,1.204 -1.566,1.204 h -3.759 c -0.858,0 -1.287,-0.324 -1.287,-0.977 0,-0.35 0.012,-0.566 0.032,-0.641 l 0.07,-0.225 12.913,-33.832 0.107,-0.227 c 0.115,-0.3 0.266,-0.538 0.454,-0.711 0.183,-0.176 0.519,-0.264 1.006,-0.264 h 2.334 c 0.488,0 0.821,0.088 1.006,0.264 0.188,0.173 0.336,0.411 0.454,0.711 0,0.076 0.034,0.151 0.104,0.227 l 12.913,33.832 -0.032,-0.076 0.066,0.415 0.068,0.526 c 0,0.652 -0.426,0.977 -1.284,0.977 h -3.725 c -0.743,0 -1.113,0 -1.113,0 0,0 -0.152,-0.398 -0.452,-1.203 z m -9.159,-25.523 -5.879,16.352 h 11.729 z" /><path
         style="fill:#ffdea5"
         inkscape:connector-curvature="0"
         id="path12"
         d="m 266.458,60.475 c 0,2.13 -0.407,3.995 -1.221,5.602 -0.763,1.427 -1.937,2.881 -3.513,4.357 2.551,1.404 4.498,3.194 5.845,5.377 1.603,2.656 2.405,6.054 2.405,10.188 0,2.556 -0.393,4.866 -1.17,6.934 -0.777,2.069 -1.871,3.854 -3.287,5.357 -1.369,1.453 -2.97,2.574 -4.802,3.363 -1.834,0.791 -3.774,1.184 -5.813,1.184 h -23.253 c -0.531,0 -0.962,-0.168 -1.284,-0.506 -0.324,-0.34 -0.49,-0.795 -0.49,-1.373 V 48.972 c 0,-0.625 0.156,-1.107 0.468,-1.447 0.314,-0.338 0.75,-0.508 1.306,-0.508 h 20.885 c 1.949,0 3.771,0.307 5.462,0.921 1.696,0.616 3.17,1.498 4.422,2.65 1.277,1.179 2.269,2.605 2.975,4.286 0.71,1.68 1.065,3.545 1.065,5.601 z m -6.022,0.036 c 0,-2.279 -0.743,-4.06 -2.227,-5.338 -1.394,-1.201 -3.299,-1.803 -5.711,-1.803 h -16.634 v 14.884 h 16.6 c 1.138,0 2.2,-0.167 3.187,-0.508 0.985,-0.336 1.828,-0.832 2.522,-1.482 1.51,-1.379 2.263,-3.295 2.263,-5.753 z m -5.57,14.061 h -19.001 v 21.837 h 19.001 c 1.182,0 2.32,-0.186 3.411,-0.563 1.089,-0.375 2.044,-0.963 2.855,-1.766 1.879,-1.855 2.816,-4.537 2.816,-8.046 0,-1.827 -0.243,-3.462 -0.729,-4.907 -0.489,-1.437 -1.171,-2.674 -2.054,-3.701 -0.813,-0.95 -1.767,-1.666 -2.853,-2.145 -1.087,-0.47 -2.24,-0.709 -3.446,-0.709 z" /><path
         style="fill:#ffdea5"
         inkscape:connector-curvature="0"
         id="path14"
         d="m 282.675,84.495 h 13.854 c 0.348,0 0.633,0.124 0.855,0.375 0.217,0.251 0.329,0.588 0.329,1.016 v 3.945 c 0,0.377 -0.112,0.691 -0.329,0.943 -0.222,0.248 -0.507,0.373 -0.855,0.373 h -13.854 v 5.001 h 17.752 c 0.346,0 0.638,0.13 0.872,0.396 0.231,0.261 0.346,0.606 0.346,1.032 v 3.946 c 0,0.376 -0.11,0.691 -0.332,0.941 -0.219,0.248 -0.516,0.373 -0.886,0.373 h -22.798 c -0.648,-0.021 -0.977,-0.463 -0.977,-1.314 V 67.277 c 0,-0.874 0.407,-1.315 1.221,-1.315 h 21.789 c 0.349,0 0.631,0.127 0.853,0.376 0.222,0.251 0.329,0.564 0.329,0.939 v 3.948 c 0,0.426 -0.107,0.764 -0.329,1.016 -0.222,0.248 -0.504,0.375 -0.853,0.375 h -16.986 v 11.879 z" /><path
         style="fill:#ffdea5"
         inkscape:connector-curvature="0"
         id="path16"
         d="m 313.479,96.224 h 17.751 c 0.348,0 0.636,0.13 0.867,0.393 0.231,0.266 0.351,0.609 0.351,1.036 v 3.87 c 0,0.376 -0.112,0.691 -0.332,0.941 -0.219,0.248 -0.516,0.373 -0.887,0.373 h -22.556 c -0.814,0 -1.216,-0.437 -1.216,-1.314 V 67.277 c 0,-0.375 0.114,-0.688 0.348,-0.939 0.232,-0.249 0.543,-0.376 0.936,-0.376 h 3.519 c 0.349,0 0.638,0.114 0.87,0.341 0.231,0.223 0.349,0.55 0.349,0.975 z" /><path
         style="fill:#ffdea5"
         inkscape:connector-curvature="0"
         id="path18"
         d="m 334.537,67.165 9.153,25.523 9.154,-25.523 c 0.278,-0.801 0.802,-1.203 1.566,-1.203 h 3.724 c 0.86,0 1.288,0.326 1.288,0.979 l -0.069,0.527 -0.069,0.411 0.034,-0.075 -12.91,33.831 c -0.12,0.127 -0.2,0.251 -0.246,0.376 -0.117,0.326 -0.302,0.553 -0.558,0.676 -0.161,0.102 -0.418,0.15 -0.765,0.15 h -2.332 c -0.484,0 -0.823,-0.086 -1.011,-0.262 -0.186,-0.175 -0.334,-0.414 -0.453,-0.715 L 328.027,67.803 c 0,-0.024 -0.021,-0.088 -0.071,-0.186 -0.021,-0.075 -0.034,-0.303 -0.034,-0.678 0,-0.652 0.431,-0.979 1.289,-0.979 h 3.76 c 0.348,0 0.66,0.109 0.94,0.321 0.277,0.214 0.484,0.509 0.626,0.884 z" /><path
         style="fill:#ffdea5"
         inkscape:connector-curvature="0"
         id="path20"
         d="m 370.035,84.495 h 13.857 c 0.347,0 0.627,0.124 0.85,0.375 0.222,0.251 0.334,0.588 0.334,1.016 v 3.945 c 0,0.377 -0.112,0.691 -0.334,0.943 -0.223,0.248 -0.503,0.373 -0.85,0.373 h -13.857 v 5.001 h 17.754 c 0.347,0 0.638,0.13 0.871,0.396 0.228,0.261 0.349,0.606 0.349,1.032 v 3.946 c 0,0.376 -0.113,0.691 -0.333,0.941 -0.222,0.248 -0.519,0.373 -0.887,0.373 H 364.99 c -0.647,-0.021 -0.973,-0.463 -0.973,-1.314 V 67.277 c 0,-0.874 0.404,-1.315 1.218,-1.315 h 21.789 c 0.347,0 0.632,0.127 0.854,0.376 0.216,0.251 0.329,0.564 0.329,0.939 v 3.948 c 0,0.426 -0.113,0.764 -0.329,1.016 -0.222,0.248 -0.507,0.375 -0.854,0.375 h -16.989 z" /><path
         style="fill:#ffdea5"
         inkscape:connector-curvature="0"
         id="path22"
         d="m 396.001,65.886 h 11.279 c 2.316,0.054 4.486,0.553 6.504,1.506 2.02,0.951 3.796,2.268 5.328,3.944 1.531,1.68 2.713,3.638 3.551,5.866 0.835,2.23 1.251,4.599 1.251,7.104 0,2.458 -0.412,4.807 -1.235,7.049 -0.824,2.242 -1.977,4.229 -3.463,5.956 -1.509,1.729 -3.27,3.085 -5.293,4.062 -2.014,0.978 -4.163,1.465 -6.437,1.465 h -11.729 c -0.649,-0.021 -0.974,-0.463 -0.974,-1.314 v -34.32 c 10e-4,-0.877 0.404,-1.318 1.218,-1.318 z m 4.976,6.654 v 23.608 h 6.51 c 1.555,0 2.97,-0.287 4.247,-0.865 1.275,-0.577 2.378,-1.403 3.307,-2.481 0.906,-1.052 1.604,-2.307 2.085,-3.758 0.491,-1.455 0.734,-3.031 0.734,-4.738 0,-1.627 -0.258,-3.161 -0.767,-4.603 -0.511,-1.442 -1.217,-2.702 -2.124,-3.778 -0.95,-1.078 -2.077,-1.911 -3.374,-2.5 -1.301,-0.59 -2.74,-0.885 -4.314,-0.885 z" /><path
         style="fill:#ffdea5"
         inkscape:connector-curvature="0"
         id="path24"
         d="m 436.305,84.495 h 13.854 c 0.349,0 0.634,0.124 0.854,0.375 0.218,0.251 0.331,0.588 0.331,1.016 v 3.945 c 0,0.377 -0.113,0.691 -0.331,0.943 -0.22,0.248 -0.505,0.373 -0.854,0.373 h -13.854 v 5.001 h 17.752 c 0.345,0 0.638,0.13 0.869,0.396 0.233,0.261 0.349,0.606 0.349,1.032 v 3.946 c 0,0.376 -0.113,0.691 -0.33,0.941 -0.223,0.248 -0.518,0.373 -0.888,0.373 H 431.26 c -0.653,-0.021 -0.979,-0.463 -0.979,-1.314 V 67.277 c 0,-0.874 0.404,-1.315 1.222,-1.315 h 21.785 c 0.349,0 0.636,0.127 0.855,0.376 0.223,0.251 0.329,0.564 0.329,0.939 v 3.948 c 0,0.426 -0.106,0.764 -0.329,1.016 -0.22,0.248 -0.507,0.375 -0.855,0.375 h -16.983 z" /><path
         style="fill:#ffdea5"
         inkscape:connector-curvature="0"
         id="path26"
         d="m 486.949,101.56 0.07,0.49 c 0,0.525 -0.211,0.787 -0.629,0.787 h -5.152 c -0.512,0 -0.916,-0.324 -1.217,-0.977 l -3.271,-7.103 c -0.975,0.276 -1.917,0.411 -2.822,0.411 h -6.821 v 6.016 c 0,1.104 -0.511,1.652 -1.532,1.652 h -2.885 c -1.067,0 -1.604,-0.549 -1.604,-1.652 V 67.543 c 0,-0.502 0.148,-0.904 0.434,-1.205 0.289,-0.301 0.655,-0.452 1.099,-0.452 h 2.854 8.456 c 1.835,0 3.574,0.371 5.22,1.109 1.648,0.741 3.1,1.787 4.354,3.141 1.25,1.352 2.23,2.923 2.941,4.717 0.705,1.793 1.057,3.688 1.057,5.695 0,2.254 -0.449,4.359 -1.354,6.316 -0.902,1.951 -2.148,3.621 -3.725,4.998 z m -6.25,-17.723 c 0.383,-1.064 0.574,-2.187 0.574,-3.363 0,-2.731 -0.869,-4.9 -2.609,-6.504 -1.648,-1.453 -3.888,-2.182 -6.716,-2.182 h -4.841 v 17.328 h 6.51 c 1.067,0 2.065,-0.219 2.993,-0.656 0.926,-0.438 1.75,-1.058 2.473,-1.861 0.692,-0.776 1.235,-1.697 1.616,-2.762 z" /><path
         style="fill:#ffdea5"
         inkscape:connector-curvature="0"
         id="path28"
         d="m 499.441,84.495 h 13.854 c 0.35,0 0.635,0.124 0.855,0.375 0.219,0.251 0.328,0.588 0.328,1.016 v 3.945 c 0,0.377 -0.109,0.691 -0.328,0.943 -0.221,0.248 -0.506,0.373 -0.855,0.373 h -13.854 v 5.001 h 17.752 c 0.35,0 0.639,0.13 0.869,0.396 0.234,0.261 0.35,0.606 0.35,1.032 v 3.946 c 0,0.376 -0.111,0.691 -0.33,0.941 -0.221,0.248 -0.52,0.373 -0.889,0.373 h -22.797 c -0.65,-0.021 -0.979,-0.463 -0.979,-1.314 V 67.277 c 0,-0.874 0.408,-1.315 1.221,-1.315 h 21.791 c 0.348,0 0.631,0.127 0.852,0.376 0.221,0.251 0.328,0.564 0.328,0.939 v 3.948 c 0,0.426 -0.107,0.764 -0.328,1.016 -0.221,0.248 -0.504,0.375 -0.852,0.375 h -16.988 z" /></g><polygon
       transform="translate(-46.712,-47.016)"
       style="fill:#ffdea5"
       id="polygon32"
       points="558.619,92.471 550.07,97.556 552.268,87.855 544.787,81.298 554.693,80.388 558.619,71.248 562.545,80.388 572.449,81.298 564.971,87.855 567.168,97.556 " /><polygon
       transform="translate(-46.712,-47.016)"
       style="fill:#ffdea5"
       id="polygon34"
       points="598.162,92.471 589.613,97.556 591.811,87.855 584.33,81.298 594.234,80.388 598.162,71.248 602.088,80.388 611.992,81.298 604.514,87.855 606.709,97.556 " /><polygon
       transform="translate(-46.712,-47.016)"
       style="fill:#ffdea5"
       id="polygon36"
       points="637.703,92.471 629.156,97.556 631.352,87.855 623.873,81.298 633.777,80.388 637.703,71.248 641.631,80.388 651.535,81.298 644.057,87.855 646.252,97.556 " /><polygon
       transform="translate(-46.712,-47.016)"
       style="fill:#ffdea5"
       id="polygon38"
       points="677.248,92.471 668.699,97.556 670.895,87.855 663.416,81.298 673.32,80.388 677.248,71.248 681.172,80.388 691.078,81.298 683.6,87.855 685.795,97.556 " /></g></svg>