<?xml version="1.0" encoding="UTF-8" standalone="no"?>
<svg
   width="646"
   height="600"
   fill="#000000"
   viewBox="0 0 5168 4800"
   version="1.1"
   id="svg134"
   sodipodi:docname="01.svg"
   inkscape:version="1.2 (dc2aeda, 2022-05-15)"
   xmlns:inkscape="http://www.inkscape.org/namespaces/inkscape"
   xmlns:sodipodi="http://sodipodi.sourceforge.net/DTD/sodipodi-0.dtd"
   xmlns="http://www.w3.org/2000/svg"
   xmlns:svg="http://www.w3.org/2000/svg">
  <defs
     id="defs138" />
  <sodipodi:namedview
     id="namedview136"
     pagecolor="#505050"
     bordercolor="#eeeeee"
     borderopacity="1"
     inkscape:showpageshadow="0"
     inkscape:pageopacity="0"
     inkscape:pagecheckerboard="0"
     inkscape:deskcolor="#505050"
     showgrid="false"
     inkscape:zoom="1.6017239"
     inkscape:cx="344.94086"
     inkscape:cy="316.84613"
     inkscape:window-width="2560"
     inkscape:window-height="1387"
     inkscape:window-x="0"
     inkscape:window-y="25"
     inkscape:window-maximized="1"
     inkscape:current-layer="svg134" />
  <path
     id="path132"
     style="fill:#ffdea5;fill-opacity:1;stroke-width:11.5863"
     d="m 1657.1366,1264.0233 c -24.6463,0.01 -49.2797,5.668 -71.4202,16.5066 -20.6963,10.0977 -39.2121,24.6348 -53.8974,42.376 -16.2267,19.5454 -27.7766,42.9425 -33.3915,67.7194 -2.8347,12.3888 -4.1563,25.1083 -4.0778,37.8136 -0.026,28.4457 0,56.8917 -0.012,85.3375 0,650.7639 0,1301.5279 0,1952.2918 0.037,14.642 4.7459,29.2491 13.3987,41.0747 9.088,12.5505 22.4558,21.935 37.371,26.1552 14.4186,4.1672 30.1724,3.506 44.1902,-1.86 13.704,-5.178 25.6679,-14.7979 33.684,-27.0585 7.5612,-11.503 11.6022,-25.2732 11.4692,-39.0377 0.033,-42.0327 0.013,-84.0658 0.022,-126.0987 5e-4,-27.0941 0,-54.1883 0,-81.2824 293.1517,0 586.3033,0 879.455,0 -9e-4,69.7652 -0.01,139.5306 0.028,209.2956 0.278,17.0367 7.0437,33.88 18.6779,46.3364 10.2872,11.1299 24.2767,18.769 39.2144,21.3563 15.1551,2.6998 31.1753,0.2085 44.7794,-7.0023 13.1658,-6.9005 24.0224,-18.1115 30.4426,-31.523 4.7494,-9.7862 7.1299,-20.6908 6.9776,-31.5638 0.038,-20.1466 0.01,-40.2935 0.017,-60.4402 0,-48.8197 0,-97.6394 0,-146.459 293.151,0 586.302,0 879.4531,0 0,69.806 -0.01,139.6124 0.032,209.4183 0.308,16.9036 6.9919,33.6118 18.4933,46.0127 10.6465,11.6179 25.3205,19.4626 40.9086,21.8036 14.4847,2.2546 29.6536,-0.2026 42.6759,-6.9387 13.3458,-6.8368 24.3781,-18.0803 30.9184,-31.5781 4.8572,-9.9361 7.2853,-21.0278 7.0978,-32.0826 0.04,-25.1605 0,-50.3212 0.017,-75.4817 0,-654.349 0,-1308.6979 0,-1963.0469 -0.1076,-31.3405 -9.509,-62.5944 -26.7921,-88.7461 -15.1085,-22.9865 -36.1353,-42.0537 -60.5359,-54.7648 -21.308,-11.1368 -45.0996,-17.5187 -69.1328,-18.4043 -0.4515,-0.3206 -1.218,-0.053 -1.7938,-0.1406 -619.4235,0 -1238.8471,0.01 -1858.2707,0.012 z m 856.7949,140.1289 c 0,571.2213 0,1142.4427 0,1713.664 -293.1517,0 -586.3033,0 -879.455,0 0,-571.2213 0,-1142.4427 0,-1713.664 293.1517,0 586.3033,0 879.455,0 z m 1019.5918,0 c 0,571.2213 0,1142.4427 0,1713.664 -293.1517,0 -586.3033,0 -879.455,0 0,-571.2213 0,-1142.4427 0,-1713.664 293.1517,0 586.3033,0 879.455,0 z M 1933.205,1634.8104 c -15.6982,0.4286 -31.2018,6.297 -43.1784,16.4696 -11.8925,9.9759 -20.2938,24.0194 -23.4235,39.2266 -3.0148,14.3377 -1.3926,29.6098 4.6367,42.9689 5.9911,13.4232 16.3204,24.8633 29.0983,32.1391 10.6589,6.1294 22.9514,9.351 35.2449,9.2812 61.1535,0.02 122.3074,0.014 183.461,0.014 31.8297,-0.01 63.6596,0.011 95.489,-0.017 16.9858,-0.2775 33.7822,-7.0002 46.2231,-18.5777 11.4275,-10.5115 19.1937,-24.9216 21.6301,-40.261 2.3928,-14.6153 -0.011,-29.9678 -6.7986,-43.1347 -6.5838,-12.9198 -17.3012,-23.6745 -30.1966,-30.3059 -10.4047,-5.4002 -22.1796,-8.0575 -33.8911,-7.8196 -39.0691,-0.036 -78.1383,0 -117.2074,-0.016 -48.1653,0 -96.3305,0.01 -144.4957,0.01 0.275,-0.9153 -0.7505,-0.4812 -1.2991,-0.5418 -5.0976,0.1884 -10.1952,0.3769 -15.2927,0.5653 z m 1019.6894,0 c -16.0467,0.4099 -31.8892,6.5272 -43.9912,17.0839 -11.5281,9.9364 -19.647,23.7385 -22.7127,38.6478 -3.1882,15.0836 -1.1712,31.1965 5.6225,45.035 6.72,13.8567 18.1772,25.3327 32.0013,32.1131 10.1591,5.0144 21.5391,7.4516 32.8571,7.216 92.395,0 184.7902,0.012 277.1851,-0.017 16.2071,-0.2156 32.2752,-6.2608 44.5504,-16.8572 11.6151,-9.9094 19.8269,-23.7211 22.9524,-38.6687 2.913,-13.6297 1.6387,-28.1207 -3.666,-41.0137 -5.4656,-13.4702 -15.2579,-25.1291 -27.5862,-32.8332 -11.1341,-7.0284 -24.2826,-10.7817 -37.4462,-10.7453 -87.7377,0.01 -175.4759,-10e-4 -263.2137,0.012 0.2664,-0.8908 -0.7854,-0.417 -1.2993,-0.5 -5.0845,0.1758 -10.169,0.3515 -15.2535,0.5273 z m -1019.6777,370.7578 c -15.4722,0.4241 -30.7555,6.1245 -42.6621,16.0274 -11.3956,9.3825 -19.691,22.4562 -23.2838,36.7766 -3.6007,14.0813 -2.6537,29.2743 2.6807,42.7955 5.175,13.2683 14.5205,24.8565 26.385,32.7336 11.6986,7.8122 25.7922,11.9645 39.8582,11.7438 24.7934,0.05 49.5871,0.011 74.3806,0.024 67.9412,0 135.8827,0 203.8238,-0.022 16.4144,-0.2465 32.6734,-6.483 44.9862,-17.3523 11.7417,-10.2395 19.9001,-24.503 22.7097,-39.8324 2.7449,-14.5784 0.7087,-30.0146 -5.7943,-43.354 -6.2696,-13.0033 -16.6509,-23.988 -29.3328,-30.8989 -10.6156,-5.8487 -22.7636,-8.8589 -34.8817,-8.6595 -24.9298,-0.036 -49.8599,0 -74.7898,-0.015 -62.5005,-0.01 -125.0011,0 -187.5016,0.01 0.2723,-0.907 -0.7626,-0.4588 -1.2991,-0.5274 -5.093,0.1836 -10.186,0.3672 -15.279,0.5508 z m 1021.6797,-0.029 c -5.3333,0 -10.6667,0 -16,0 0,0.6159 0,1.2318 0,1.8477 -14.1868,3.2493 -27.2553,11.0993 -36.8203,22.0645 -9.7045,11.0098 -15.7661,25.1519 -17.0652,39.7693 -1.3945,14.6851 2.0589,29.7661 9.6706,42.3986 7.469,12.5342 18.9799,22.5954 32.3946,28.3321 8.9616,3.8745 18.7365,5.8092 28.4963,5.7162 92.7069,0.021 185.414,0.016 278.1209,-0.01 17.246,-0.1708 34.3336,-7.0005 46.9056,-18.816 11.5037,-10.6806 19.2362,-25.3346 21.508,-40.8713 2.1843,-14.4316 -0.2955,-29.5244 -7.0261,-42.48 -6.9002,-13.4255 -18.2597,-24.5109 -31.8935,-31.0048 -9.8108,-4.739 -20.7363,-7.0983 -31.6261,-6.9323 -7.6797,-0.049 -15.3602,0.055 -23.039,-0.015 -84.542,-0.01 -169.0839,-0.01 -253.6258,0 z" />
  <path
     d="M 3272.3773,2527.6622 A 166.84904,166.84904 0 0 0 2995.7,2697.3268 l -115.1676,115.1676 a 33.077824,33.077824 0 0 0 -9.7816,23.5882 v 59.8363 a 33.369809,33.369809 0 0 0 33.3699,33.3697 h 66.7396 a 16.684904,16.684904 0 0 0 16.6849,-16.6848 v -33.3698 h 33.3698 a 16.684904,16.684904 0 0 0 16.6849,-16.6849 v -33.3698 h 33.3698 a 16.684904,16.684904 0 0 0 11.8046,-4.8804 l 19.9384,-19.9593 a 166.28593,166.28593 0 0 0 51.6815,8.1548 h 0.2086 a 166.84904,166.84904 0 0 0 117.7745,-284.8322 z m 15.4961,122.3629 c -2.2732,71.0985 -62.0469,129.016 -133.2498,129.0994 h -0.2294 a 132.85355,132.85355 0 0 1 -49.3248,-9.4062 16.684904,16.684904 0 0 0 -18.4367,3.5039 l -22.5664,22.5872 h -43.1513 a 16.684904,16.684904 0 0 0 -16.6849,16.685 v 33.3697 h -33.3698 a 16.684904,16.684904 0 0 0 -16.6849,16.685 v 33.3698 h -50.0547 v -59.8363 l 122.6965,-122.6757 a 16.684904,16.684904 0 0 0 3.5039,-18.4369 132.89527,132.89527 0 0 1 -9.4061,-49.4916 c 0,-71.2028 58.0009,-130.9765 129.0994,-133.2497 a 133.47924,133.47924 0 0 1 137.859,137.7964 z m -66.7396,-46.0921 a 25.027357,25.027357 0 1 1 -25.0273,-25.0273 25.027357,25.027357 0 0 1 25.0273,25.0273 z"
     id="path15516"
     style="fill:#ffdea5;fill-opacity:1;stroke-width:2.08561" />
  <g
     id="Vrstva_1"
     transform="matrix(8,0,0,8,337.47309,-1593.9618)"
     style="fill:#ff0000">
	
</g>
</svg>
