<?xml version="1.0" encoding="utf-8"?>
<!-- Generator: Adobe Illustrator 16.0.0, SVG Export Plug-In . SVG Version: 6.00 Build 0)  -->
<!DOCTYPE svg PUBLIC "-//W3C//DTD SVG 1.1//EN" "http://www.w3.org/Graphics/SVG/1.1/DTD/svg11.dtd">
<svg version="1.1" xmlns="http://www.w3.org/2000/svg" xmlns:xlink="http://www.w3.org/1999/xlink" x="0px" y="0px"
	 width="645.602px" height="600px" viewBox="0 0 645.602 600" enable-background="new 0 0 645.602 600" xml:space="preserve">
<g id="Vrstva_2" display="none">
</g>
<g id="Vrstva_1">
	<g>
		<path fill="#FFDEA5" d="M193.14,255.634l17,0.014c0.003-3.646,3.229-8.727,4.764-10.582c0.897-1.063,8.768-10.702,8.771-21.522
			c0.007-10.815-7.85-20.471-8.747-21.538c-1.491-1.772-4.76-6.898-4.756-10.587c0.003-3.636,3.228-8.712,4.764-10.57
			c0.897-1.064,8.765-10.714,8.765-21.541h-17c0,3.646-3.227,8.728-4.767,10.589c-0.896,1.064-8.754,10.707-8.762,21.507
			c-0.012,10.824,7.852,20.482,8.746,21.546c1.491,1.773,4.759,6.9,4.757,10.588c-0.001,3.64-3.226,8.71-4.767,10.571
			C201.011,235.171,193.148,244.814,193.14,255.634z"/>
		<path fill="#FFDEA5" d="M245.091,255.65l17,0.016c0.004-3.647,3.229-8.729,4.761-10.581c0.897-1.063,8.773-10.704,8.774-21.523
			c0.008-10.816-7.849-20.472-8.724-21.512c-1.561-1.89-4.783-6.969-4.777-10.623c0-3.63,3.225-8.702,4.765-10.563
			c0.896-1.064,8.758-10.713,8.762-21.538l-17-0.006c-0.001,3.65-3.228,8.733-4.764,10.592c-0.896,1.064-8.762,10.708-8.763,21.501
			c-0.018,10.831,7.851,20.491,8.722,21.525c1.561,1.89,4.782,6.972,4.779,10.617c0,3.639-3.227,8.707-4.771,10.571
			C252.959,235.19,245.102,244.832,245.091,255.65z"/>
		<path fill="#FFDEA5" d="M297.042,255.648l17,0.02c0.004-3.649,3.229-8.731,4.761-10.583c0.897-1.063,8.771-10.703,8.774-21.523
			c0.008-10.816-7.849-20.472-8.724-21.512c-1.561-1.89-4.783-6.969-4.777-10.623c0-3.63,3.225-8.702,4.765-10.563
			c0.896-1.065,8.759-10.714,8.762-21.54l-17-0.004c-0.001,3.649-3.227,8.732-4.764,10.591c-0.896,1.064-8.762,10.708-8.763,21.501
			c-0.018,10.831,7.851,20.491,8.722,21.525c1.561,1.89,4.782,6.972,4.779,10.616c-0.001,3.639-3.227,8.709-4.771,10.573
			C304.91,235.19,297.054,244.832,297.042,255.648z"/>
		<path fill="#FFDEA5" d="M348.993,255.648l17,0.02c0.004-3.649,3.229-8.731,4.761-10.583c0.897-1.063,8.772-10.704,8.773-21.521
			c0.011-10.817-7.848-20.474-8.746-21.542c-1.491-1.772-4.76-6.898-4.755-10.594c0.001-3.631,3.226-8.703,4.764-10.563
			c0.897-1.064,8.761-10.714,8.764-21.54l-17-0.004c-0.001,3.649-3.228,8.731-4.765,10.591c-0.896,1.064-8.76,10.708-8.763,21.503
			c-0.015,10.829,7.852,20.488,8.723,21.523c1.561,1.89,4.782,6.971,4.778,10.617c0,3.639-3.226,8.708-4.771,10.572
			C356.861,235.19,349.005,244.832,348.993,255.648z"/>
		<path fill="#FFDEA5" d="M443.965,245.407c1.66,1.659,3.835,2.489,6.011,2.489s4.351-0.83,6.011-2.489l85.801-85.801
			c1.594-1.595,2.489-3.757,2.489-6.011c0-2.255-0.896-4.416-2.489-6.011l-25.345-25.344c-3.32-3.318-8.701-3.318-12.021,0
			l-85.8,85.801c-3.319,3.319-3.319,8.702,0,12.021l6.659,6.659l-52.89,52.891H187.339c-15.88,0-28.799,12.919-28.799,28.799v23.4
			h-5.963c-18.815,0-34.123,15.307-34.123,34.121c0,18.816,15.308,34.125,34.123,34.125h5.963v14.2
			c0,7.214,2.702,20.153,6.425,30.766c5.955,16.977,13.273,25.229,22.374,25.229h252.186c9.101,0,16.42-8.253,22.375-25.229
			c3.723-10.613,6.425-23.552,6.425-30.766v-14.2h5.963c18.815,0,34.123-15.309,34.123-34.125c0-18.814-15.308-34.121-34.123-34.121
			h-5.963v-23.4c0-15.88-12.92-28.799-28.8-28.799h-43.091l40.868-40.869L443.965,245.407z M152.577,383.059
			c-9.441,0-17.123-7.683-17.123-17.125c0-9.44,7.682-17.121,17.123-17.121h5.963v34.246H152.577z M474.287,348.813
			c9.441,0,17.123,7.681,17.123,17.121c0,9.442-7.682,17.125-17.123,17.125h-5.963v-34.246H474.287z M451.324,308.412v31.9v51.246
			v22.7c0,10.331-7.527,35.021-12.625,38.995H188.164c-5.098-3.974-12.624-28.664-12.624-38.995v-22.7v-51.246v-31.9
			c0-6.506,5.293-11.799,11.799-11.799h252.186C446.031,296.613,451.324,301.906,451.324,308.412z M510.432,140.272l13.324,13.323
			l-73.78,73.78l-13.323-13.323L510.432,140.272z"/>
		<path fill="#FFDEA5" d="M224.929,421.31c-0.073-0.189-7.291-19.137-7.291-32.382v-63.152h-17v63.152
			c0,16.428,8.082,37.596,8.426,38.489L224.929,421.31z"/>
	</g>
</g>
</svg>
