<?xml version="1.0" encoding="utf-8"?>
<!-- Generator: Adobe Illustrator 16.0.0, SVG Export Plug-In . SVG Version: 6.00 Build 0)  -->
<!DOCTYPE svg PUBLIC "-//W3C//DTD SVG 1.1//EN" "http://www.w3.org/Graphics/SVG/1.1/DTD/svg11.dtd">
<svg version="1.1" xmlns="http://www.w3.org/2000/svg" xmlns:xlink="http://www.w3.org/1999/xlink" x="0px" y="0px"
	 width="645.602px" height="600px" viewBox="0 0 645.602 600" enable-background="new 0 0 645.602 600" xml:space="preserve">
<g id="Vrstva_2" display="none">
</g>
<g id="Vrstva_1">
	<g>
		<path fill="#FFDEA5" d="M371.826,332.247c16.509,0,29.939-13.43,29.939-29.938c0-16.506-13.431-29.935-29.939-29.935
			c-16.506,0-29.935,13.429-29.935,29.935C341.892,318.817,355.32,332.247,371.826,332.247z M371.826,289.375
			c7.135,0,12.939,5.803,12.939,12.935c0,7.134-5.805,12.938-12.939,12.938c-7.132,0-12.935-5.804-12.935-12.938
			C358.892,295.178,364.694,289.375,371.826,289.375z"/>
		<path fill="#FFDEA5" d="M425.518,311.152h17c0-44.298-36.038-80.336-80.335-80.336v17
			C397.105,247.816,425.518,276.229,425.518,311.152z"/>
		<path fill="#FFDEA5" d="M464.098,311.152h17c0-65.57-53.344-118.916-118.912-118.916v17
			C418.38,209.236,464.098,254.956,464.098,311.152z"/>
		<path fill="#FFDEA5" d="M362.186,154.193v17c77.172,0,139.955,62.785,139.955,139.959h17
			C519.141,224.604,448.73,154.193,362.186,154.193z"/>
		<path fill="#FFDEA5" d="M464.198,390.229c0,8.437-6.978,15.3-15.554,15.3H176.043c-8.576,0-15.553-6.863-15.553-15.3V224.436
			c0-8.436,6.977-15.299,15.553-15.299h165.041v-17H176.043c-17.949,0-32.553,14.489-32.553,32.299v165.793
			c0,9.41,4.079,17.892,10.571,23.8c-6.492,5.908-10.571,14.39-10.571,23.8v8.769c0,4.694,3.806,8.5,8.5,8.5h320.708
			c4.694,0,8.5-3.806,8.5-8.5v-8.769c0-9.41-4.079-17.892-10.572-23.8c6.493-5.908,10.572-14.39,10.572-23.8v-55.721h-17V390.229z
			 M464.198,437.828v0.269H160.49v-0.269c0-8.437,6.977-15.3,15.553-15.3h272.602C457.221,422.528,464.198,429.392,464.198,437.828z
			"/>
		<path fill="#FFDEA5" d="M179.373,371.001c0,8.079,6.551,14.63,14.627,14.63c8.08,0,14.631-6.551,14.631-14.63
			c0-8.078-6.551-14.628-14.631-14.628C185.924,356.373,179.373,362.923,179.373,371.001z"/>
	</g>
</g>
</svg>
