<?xml version="1.0" encoding="utf-8"?>
<!-- Generator: Adobe Illustrator 16.0.0, SVG Export Plug-In . SVG Version: 6.00 Build 0)  -->
<!DOCTYPE svg PUBLIC "-//W3C//DTD SVG 1.1//EN" "http://www.w3.org/Graphics/SVG/1.1/DTD/svg11.dtd">
<svg version="1.1" xmlns="http://www.w3.org/2000/svg" xmlns:xlink="http://www.w3.org/1999/xlink" x="0px" y="0px"
	 width="645.602px" height="600px" viewBox="0 0 645.602 600" enable-background="new 0 0 645.602 600" xml:space="preserve">
<g id="Vrstva_2" display="none">
</g>
<g id="Vrstva_1">
	<g>
		<path fill="#FFDEA5" d="M294.243,250.417c-1.166,1.336-4.544,2.102-9.269,2.102c-26.567,0-36.212,21.114-36.212,35.307v9.328h17
			v-9.328c0-1.874,0.54-18.307,19.212-18.307c27.797,0,27.797-20.45,27.797-27.17c0-9.663,4.015-19.988,15.281-19.988v-17
			c-19.007,0-32.281,15.21-32.281,36.988C295.771,246.541,295.258,249.255,294.243,250.417z"/>
		<path fill="#FFDEA5" d="M240.232,267.109c0-1.874,0.539-18.306,19.211-18.306c27.794,0,27.794-20.45,27.794-27.171
			c0-9.662,4.016-19.987,15.284-19.987v-17c-19.009,0-32.284,15.21-32.284,36.987c0,4.193-0.514,6.909-1.526,8.07
			c-1.165,1.335-4.543,2.101-9.268,2.101c-26.567,0-36.211,21.114-36.211,35.306v19.117h17V267.109z"/>
		<path fill="#FFDEA5" d="M324.783,149.675c-91.061,0-165.144,74.083-165.144,165.144s74.083,165.145,165.144,165.145
			s165.144-74.084,165.144-165.145S415.844,149.675,324.783,149.675z M176.64,314.818c0-81.687,66.457-148.144,148.144-148.144
			c37.792,0,72.316,14.231,98.517,37.607L317.89,309.691h-60.419h-24.753c-8.52,0.039-16.141,3.845-21.458,10.716
			c-4.717,6.094-7.292,14.267-7.25,23.007c0.081,19.068,12.498,33.447,28.884,33.447h17.826l-36.473,36.474
			C190.871,387.135,176.64,352.61,176.64,314.818z M324.933,326.691h98.211c2.721,0.013,4.196,0.844,5.439,3.067
			c1.13,2.021,2.469,6.016,2.433,13.583c-0.069,16.481-5.987,16.52-7.954,16.52c-0.005,0-0.01,0-0.015,0h-0.087H291.763
			L324.933,326.691z M267.72,359.861h-1.749v-33.17h34.919L267.72,359.861z M324.783,462.963c-37.791,0-72.315-14.231-98.515-37.606
			l48.494-48.495h148.161c0.013,0,0.109-0.003,0.124,0c7.467,0,24.84-3.262,24.968-33.442c0.043-9.041-1.503-16.429-4.595-21.958
			c-4.223-7.549-11.396-11.729-20.237-11.77h-81.251l93.389-93.388c23.375,26.199,37.605,60.724,37.605,98.515
			C472.927,396.506,406.471,462.963,324.783,462.963z"/>
	</g>
</g>
</svg>
