<?xml version="1.0" encoding="utf-8"?>
<!-- Generator: Adobe Illustrator 16.0.0, SVG Export Plug-In . SVG Version: 6.00 Build 0)  -->
<!DOCTYPE svg PUBLIC "-//W3C//DTD SVG 1.1//EN" "http://www.w3.org/Graphics/SVG/1.1/DTD/svg11.dtd">
<svg version="1.1" xmlns="http://www.w3.org/2000/svg" xmlns:xlink="http://www.w3.org/1999/xlink" x="0px" y="0px"
	 width="645.602px" height="600px" viewBox="0 0 645.602 600" enable-background="new 0 0 645.602 600" xml:space="preserve">
<g id="Vrstva_2" display="none">
</g>
<g id="Vrstva_1">
	<g>
		<path fill="#FFDEA5" d="M141.027,183.689h-26.141v64.131h15.628v-19.402h9.231c11.652,0,19.892-7.274,19.892-22.813
			C159.638,196.442,154.807,183.689,141.027,183.689z M136.551,213.15h-6.036v-13.025h6.96c3.835,0,7.387,0.361,7.387,6.198
			C144.861,212.792,140.601,213.15,136.551,213.15z"/>
		<path fill="#FFDEA5" d="M569.498,343.389c-1.769-36.892-11.909-63.103-30.14-77.903c-13.844-11.239-27.227-11.501-29.485-11.451
			H353.736c-1.772,0-3.501,0.554-4.943,1.585l-76.735,54.852h-27.698c-19.503,0-43.927,18.359-51.364,38.569l-13.652,33.047
			c-0.425,1.029-0.644,2.132-0.644,3.245c0,19.815,16.121,35.937,35.938,35.937h15.74c5.731,19.1,23.465,33.059,44.405,33.059
			s38.674-13.959,44.405-33.059h123.566c5.731,19.1,23.465,33.059,44.404,33.059s38.673-13.959,44.404-33.059h2.009
			c19.815,0,35.937-16.121,35.937-35.937v-41.536C569.508,343.66,569.505,343.524,569.498,343.389z M504.523,271.034v39.437h-82.841
			v-39.437H504.523z M356.462,271.034h48.221v39.437H301.292L356.462,271.034z M274.782,437.327
			c-16.188,0-29.358-13.17-29.358-29.357c0-16.188,13.17-29.358,29.358-29.358s29.358,13.17,29.358,29.358
			C304.141,424.157,290.971,437.327,274.782,437.327z M487.158,437.327c-16.188,0-29.357-13.17-29.357-29.357
			c0-16.188,13.17-29.358,29.357-29.358s29.357,13.17,29.357,29.358C516.516,424.157,503.346,437.327,487.158,437.327z
			 M552.508,385.332c0,10.441-8.495,18.937-18.937,18.937h-0.217c-1.894-23.837-21.882-42.657-46.196-42.657
			s-44.303,18.82-46.196,42.657H320.979c-1.894-23.837-21.882-42.657-46.197-42.657s-44.304,18.82-46.197,42.657h-13.948
			c-9.925,0-18.091-7.674-18.876-17.399l13.014-31.5c0.047-0.114,0.092-0.23,0.135-0.348c5.286-14.579,24.228-27.551,35.45-27.551
			h30.424h238.24c4.694,0,8.5-3.806,8.5-8.5v-44.9c11.748,5.73,28.654,22.261,30.984,69.93V385.332z"/>
		<path fill="#FFDEA5" d="M143.13,279.261h41.692c4.694,0,8.5-3.806,8.5-8.5V159.343c0-4.694-3.806-8.5-8.5-8.5H84.438
			c-4.694,0-8.5,3.806-8.5,8.5v111.418c0,4.694,3.806,8.5,8.5,8.5h41.692v158.146h-22.299v17h61.599v-17h-22.3V279.261z
			 M92.938,167.843h83.385v94.418H92.938V167.843z"/>
	</g>
</g>
</svg>
