<?xml version="1.0" encoding="utf-8"?>
<!-- Generator: Adobe Illustrator 16.0.0, SVG Export Plug-In . SVG Version: 6.00 Build 0)  -->
<!DOCTYPE svg PUBLIC "-//W3C//DTD SVG 1.1//EN" "http://www.w3.org/Graphics/SVG/1.1/DTD/svg11.dtd">
<svg version="1.1" xmlns="http://www.w3.org/2000/svg" xmlns:xlink="http://www.w3.org/1999/xlink" x="0px" y="0px"
	 width="645.602px" height="600px" viewBox="0 0 645.602 600" enable-background="new 0 0 645.602 600" xml:space="preserve">
<g id="Vrstva_2" display="none">
</g>
<g id="Vrstva_1">
	<g>
		<path fill="#FFDEA5" d="M154.766,120.151c-42.165,0-76.469,34.304-76.469,76.469c0,39.29,29.791,71.74,67.969,75.984v163.802
			h-20.748v17h58.496v-17h-20.748V272.604c38.177-4.244,67.968-36.694,67.968-75.984
			C231.233,154.455,196.93,120.151,154.766,120.151z M154.766,256.088c-32.791,0-59.469-26.677-59.469-59.468
			s26.678-59.469,59.469-59.469s59.468,26.678,59.468,59.469S187.557,256.088,154.766,256.088z"/>
		<path fill="#FFDEA5" d="M488.258,203.702H327.059c-12.839,0-23.284,10.445-23.284,23.284v93.145
			c0,12.84,10.445,23.285,23.284,23.285h161.199c12.84,0,23.286-10.445,23.286-23.285v-93.145
			C511.544,214.147,501.098,203.702,488.258,203.702z M494.544,320.131c0,3.466-2.82,6.285-6.286,6.285H327.059
			c-3.465,0-6.284-2.819-6.284-6.285v-93.145c0-3.465,2.819-6.284,6.284-6.284h161.199c3.466,0,6.286,2.819,6.286,6.284V320.131z"/>
		<rect x="334.22" y="297.021" fill="#FFDEA5" width="146.879" height="17"/>
		<path fill="#FFDEA5" d="M486.78,355.985c-13.654,0-24.764,11.108-24.764,24.763s11.109,24.764,24.764,24.764
			s24.764-11.109,24.764-24.764S500.435,355.985,486.78,355.985z M486.78,388.512c-4.281,0-7.764-3.482-7.764-7.764
			c0-4.28,3.482-7.763,7.764-7.763s7.764,3.482,7.764,7.763C494.544,385.029,491.062,388.512,486.78,388.512z"/>
		<path fill="#FFDEA5" d="M328.537,355.985c-13.654,0-24.763,11.108-24.763,24.763s11.108,24.764,24.763,24.764
			s24.764-11.109,24.764-24.764S342.191,355.985,328.537,355.985z M328.537,388.512c-4.28,0-7.763-3.482-7.763-7.764
			c0-4.28,3.482-7.763,7.763-7.763c4.281,0,7.764,3.482,7.764,7.763C336.301,385.029,332.818,388.512,328.537,388.512z"/>
		<path fill="#FFDEA5" d="M550.758,224.123h-2.466c-2.177,0-4.283,0.307-6.283,0.868v-26.425c0-17.461-16.563-33.127-47.896-45.305
			c-25.923-10.075-58.242-16.091-86.453-16.091c-28.212,0-60.531,6.016-86.453,16.091c-31.334,12.178-47.896,27.845-47.896,45.305
			v26.426c-2.001-0.562-4.107-0.869-6.285-0.869h-2.465c-12.839,0-23.284,10.445-23.284,23.284v41.396
			c0,12.84,10.445,23.286,23.284,23.286h2.465c2.178,0,4.284-0.308,6.285-0.869v99.604c0,11.646,8.594,21.321,19.773,23.02v5.782
			c0,13.191,12.579,24.763,26.92,24.763h3.068c14.34,0,26.919-11.571,26.919-24.763v-5.518h115.335v5.518
			c0,13.191,12.579,24.763,26.92,24.763h3.069c14.34,0,26.919-11.571,26.919-24.763v-5.782c11.18-1.698,19.774-11.374,19.774-23.02
			v-99.604c2,0.562,4.106,0.868,6.283,0.868h2.466c12.839,0,23.284-10.446,23.284-23.286v-41.396
			C574.042,234.568,563.597,224.123,550.758,224.123z M273.31,288.804c0,3.466-2.819,6.286-6.284,6.286h-2.465
			c-3.465,0-6.284-2.82-6.284-6.286v-41.396c0-3.465,2.819-6.284,6.284-6.284h2.465c3.465,0,6.284,2.819,6.284,6.284V288.804z
			 M332.991,439.627c0,3.126-4.165,7.763-9.919,7.763h-3.068c-5.755,0-9.92-4.637-9.92-7.763v-5.518h22.907V439.627z
			 M505.234,439.627c0,3.126-4.165,7.763-9.919,7.763h-3.069c-5.755,0-9.92-4.637-9.92-7.763v-5.518h22.908V439.627z
			 M525.009,410.825c0,3.465-2.819,6.284-6.285,6.284h-4.989h-39.908H341.491h-39.907h-4.989c-3.465,0-6.284-2.819-6.284-6.284
			l-0.001-212.259c0-9.288,14.198-20.576,37.055-29.46c23.703-9.213,54.471-14.936,80.295-14.936s56.591,5.723,80.295,14.936
			c22.856,8.884,37.055,20.172,37.055,29.46v48.841v41.396V410.825z M557.042,288.804c0,3.466-2.819,6.286-6.284,6.286h-2.466
			c-3.465,0-6.283-2.82-6.283-6.286v-41.396c0-3.465,2.818-6.284,6.283-6.284h2.466c3.465,0,6.284,2.819,6.284,6.284V288.804z"/>
		<rect x="377.273" y="171.572" fill="#FFDEA5" width="60.77" height="17"/>
		<path fill="#FFDEA5" d="M132.786,194.738c2.474-1.538,4.106-3.605,4.106-7.424c0-3.87-1.866-9.491-10.639-9.491H108.01v37.859
			h18.897c5.879,0,11.665-3.924,11.665-11.506C138.572,198.608,135.772,195.904,132.786,194.738z M118.274,186.837h5.413
			c2.1,0,3.5,0.689,3.5,2.599c0,2.439-1.354,3.129-3.5,3.129h-5.413V186.837z M124.294,206.669h-6.02v-7.053h6.439
			c2.427,0,3.593,1.22,3.593,3.446C128.307,205.979,126.44,206.669,124.294,206.669z"/>
		<path fill="#FFDEA5" d="M161.44,198.45c0,3.87,0,8.695-4.853,8.695c-4.993,0-4.993-4.825-4.993-8.695v-20.627h-10.266v23.225
			c0,10.499,5.04,15.536,15.212,15.536s15.165-5.037,15.165-15.536v-23.225H161.44V198.45z"/>
		<path fill="#FFDEA5" d="M174.977,189.436c0,7.636,6.02,9.279,11.292,10.976c5.739,1.856,7.187,2.387,7.187,4.349
			c0,2.811-2.566,3.446-4.246,3.446c-1.914,0-4.153-0.478-4.9-2.757c-0.232-0.689-0.373-1.538-0.373-2.492H173.67
			c0.094,12.089,10.872,13.627,14.652,13.627c7.419,0,15.398-3.182,15.398-13.044c0-6.946-4.667-9.438-9.38-10.923
			c-4.712-1.484-9.472-2.068-9.658-4.772c0-2.121,2.286-2.545,3.686-2.545c1.027,0,2.193,0.265,3.033,0.954
			c0.84,0.637,1.4,1.591,1.214,3.022h9.705c-0.28-9.227-6.673-12.354-13.905-12.354
			C181.556,176.922,174.977,180.687,174.977,189.436z"/>
	</g>
</g>
</svg>
