<?xml version="1.0" encoding="utf-8"?>
<!-- Generator: Adobe Illustrator 16.0.0, SVG Export Plug-In . SVG Version: 6.00 Build 0)  -->
<!DOCTYPE svg PUBLIC "-//W3C//DTD SVG 1.1//EN" "http://www.w3.org/Graphics/SVG/1.1/DTD/svg11.dtd">
<svg version="1.1" xmlns="http://www.w3.org/2000/svg" xmlns:xlink="http://www.w3.org/1999/xlink" x="0px" y="0px"
	 width="645.602px" height="600px" viewBox="0 0 645.602 600" enable-background="new 0 0 645.602 600" xml:space="preserve">
<g id="Vrstva_2" display="none">
</g>
<g id="Vrstva_1">
	<g>
		<path fill="#FFDEA5" d="M292.508,296.01c15.975,0,28.971-12.997,28.971-28.972s-12.996-28.972-28.971-28.972
			c-15.976,0-28.973,12.997-28.973,28.972S276.532,296.01,292.508,296.01z M292.508,255.066c6.601,0,11.971,5.37,11.971,11.972
			s-5.37,11.972-11.971,11.972c-6.602,0-11.973-5.37-11.973-11.972S285.906,255.066,292.508,255.066z"/>
		<path fill="#FFDEA5" d="M419.854,305.2h-30.41c-4.694,0-8.5,3.806-8.5,8.5v45.817c0,4.694,3.806,8.5,8.5,8.5h30.41
			c4.694,0,8.5-3.806,8.5-8.5V313.7C428.354,309.006,424.548,305.2,419.854,305.2z M411.354,351.018h-13.41V322.2h13.41V351.018z"/>
		<path fill="#FFDEA5" d="M486.857,305.2h-30.41c-4.694,0-8.5,3.806-8.5,8.5v45.817c0,4.694,3.806,8.5,8.5,8.5h30.41
			c4.694,0,8.5-3.806,8.5-8.5V313.7C495.357,309.006,491.552,305.2,486.857,305.2z M478.357,351.018h-13.41V322.2h13.41V351.018z"/>
		<path fill="#FFDEA5" d="M535.076,440.652V277.36c0-1.596-0.448-3.084-1.213-4.359l0.007-0.004l-40.926-68.415
			c-1.535-2.566-4.306-4.137-7.295-4.137H354.719l-54.785-98.354c-1.501-2.693-4.342-4.363-7.426-4.363
			c-3.083,0-5.925,1.67-7.426,4.363l-57.217,102.718c-0.005,0.009-0.008,0.018-0.013,0.026c-0.166,0.299-0.312,0.61-0.44,0.931
			c-0.025,0.063-0.046,0.127-0.07,0.19c-0.095,0.254-0.179,0.512-0.249,0.776c-0.024,0.089-0.048,0.176-0.068,0.265
			c-0.062,0.26-0.109,0.523-0.146,0.793c-0.01,0.07-0.024,0.141-0.032,0.213c-0.035,0.31-0.056,0.623-0.056,0.942v70.11
			c-8.851,11.105-52.592,62.263-107.074,62.263c-4.694,0-8.5,3.806-8.5,8.5s3.806,8.5,8.5,8.5h19.551v82.334h-19.551v17h115.574
			h37.454h39.523h37.455h176.853h30.025v-17H535.076z M511.586,268.86H358.224v-51.415h122.605L511.586,268.86z M292.508,123.695
			l42.751,76.75h-85.503L292.508,123.695z M226.791,304.837v36.481h-46.409C200.085,330.317,216.026,316.021,226.791,304.837z
			 M156.268,358.318h70.523v82.334h-70.523V358.318z M243.791,217.445h97.433v59.915v163.292h-20.455v-73.667
			c0-4.694-3.806-8.5-8.5-8.5h-39.523c-4.694,0-8.5,3.806-8.5,8.5v73.667h-20.454V217.445z M281.245,440.652v-65.167h22.523v65.167
			H281.245z M358.224,440.652V285.86h159.853v154.792H358.224z"/>
	</g>
</g>
</svg>
