<?xml version="1.0" encoding="utf-8"?>
<!-- Generator: Adobe Illustrator 16.0.0, SVG Export Plug-In . SVG Version: 6.00 Build 0)  -->
<!DOCTYPE svg PUBLIC "-//W3C//DTD SVG 1.1//EN" "http://www.w3.org/Graphics/SVG/1.1/DTD/svg11.dtd">
<svg version="1.1" xmlns="http://www.w3.org/2000/svg" xmlns:xlink="http://www.w3.org/1999/xlink" x="0px" y="0px"
	 width="645.602px" height="600px" viewBox="0 0 645.602 600" enable-background="new 0 0 645.602 600" xml:space="preserve">
<g id="Vrstva_2" display="none">
</g>
<g id="Vrstva_1">
	<g>
		<circle fill="#FFDEA5" cx="178.544" cy="194.042" r="26.49"/>
		
			<rect x="336.614" y="110.115" transform="matrix(0.595 0.8038 -0.8038 0.595 307.9085 -192.6668)" fill="#FFDEA5" width="17" height="198.103"/>
		<path fill="#FFDEA5" d="M423.459,356.184c3.229,17.404-4.414,20.861-5.832,21.346c-0.305,0.053-0.259,0.065-0.636,0.188
			l-259,84.333l5.264,16.164l258.696-84.234c8.779-2.252,23.313-13.461,18.223-40.898L423.459,356.184z"/>
		<path fill="#FFDEA5" d="M195.709,227.34l-7.598,2.609c-6.676,2.292-12.091,6.99-15.248,13.229
			c-3.197,6.317-3.703,13.451-1.424,20.085l24.599,71.649c3.599,10.479,13.582,17.518,24.842,17.518
			c2.188,0,4.358-0.271,6.485-0.799c1.974,0.357,4.036,0.301,6.074-0.269l60.113-16.971l-0.161,55.824
			c-0.058,6.044,5.071,10.991,11.454,11.054l5.139,0.048c6.384,0.063,11.605-4.788,11.661-10.83l0.215-74.372
			c0.001-0.129-0.013-0.255-0.017-0.383c0.048-1.555-0.127-3.148-0.57-4.736l-1.8-6.433c-2.231-7.991-10.177-12.758-17.74-10.644
			l-50.188,14.169l-22.215-64.704c-3.6-10.478-13.582-17.517-24.841-17.517C201.508,225.869,198.555,226.363,195.709,227.34z"/>
		<path fill="#FFDEA5" d="M222.651,392.049c6.817,0,13.751-1.108,20.551-3.441l23.102-7.938l-5.525-16.078l-23.099,7.938
			c-24.232,8.316-50.713-4.63-59.033-28.858l-17.992-52.404l-16.078,5.52l17.992,52.405
			C171.598,375.485,196.285,392.049,222.651,392.049z"/>
		<path fill="#FFDEA5" d="M505.44,265.149c-1.329-2.652-3.944-4.42-6.901-4.664c-2.951-0.236-5.826,1.071-7.571,3.471l-29.099,39.99
			l-36.688-73.229c-1.329-2.652-3.944-4.42-6.901-4.664c-2.965-0.24-5.826,1.071-7.571,3.471l-50.958,70.029l13.746,10.002
			l42.741-58.736l59.155,118.074l15.199-7.615l-20.15-40.22l26.056-35.807l41.905,83.642l15.199-7.615L505.44,265.149z"/>
	</g>
</g>
</svg>
