<?xml version="1.0" encoding="UTF-8" standalone="no"?>
<!-- Generator: Adobe Illustrator 16.0.0, SVG Export Plug-In . SVG Version: 6.00 Build 0)  -->

<svg
   xmlns:dc="http://purl.org/dc/elements/1.1/"
   xmlns:cc="http://creativecommons.org/ns#"
   xmlns:rdf="http://www.w3.org/1999/02/22-rdf-syntax-ns#"
   xmlns:svg="http://www.w3.org/2000/svg"
   xmlns="http://www.w3.org/2000/svg"
   xmlns:sodipodi="http://sodipodi.sourceforge.net/DTD/sodipodi-0.dtd"
   xmlns:inkscape="http://www.inkscape.org/namespaces/inkscape"
   version="1.1"
   x="0px"
   y="0px"
   width="100.00122"
   height="100"
   viewBox="0 0 100.00122 100"
   enable-background="new 0 0 462.245 424"
   xml:space="preserve"
   id="svg127"
   sodipodi:docname="no-pets.svg"
   inkscape:version="0.92.1 r15371"><metadata
     id="metadata133"><rdf:RDF><cc:Work
         rdf:about=""><dc:format>image/svg+xml</dc:format><dc:type
           rdf:resource="http://purl.org/dc/dcmitype/StillImage" /><dc:title></dc:title></cc:Work></rdf:RDF></metadata><defs
     id="defs131" /><sodipodi:namedview
     pagecolor="#ffffff"
     bordercolor="#666666"
     borderopacity="1"
     objecttolerance="10"
     gridtolerance="10"
     guidetolerance="10"
     inkscape:pageopacity="0"
     inkscape:pageshadow="2"
     inkscape:window-width="1600"
     inkscape:window-height="840"
     id="namedview129"
     showgrid="false"
     fit-margin-top="0"
     fit-margin-left="0"
     fit-margin-right="0"
     fit-margin-bottom="0"
     inkscape:zoom="1.5448113"
     inkscape:cx="163.2515"
     inkscape:cy="163.25001"
     inkscape:window-x="0"
     inkscape:window-y="0"
     inkscape:window-maximized="1"
     inkscape:current-layer="svg127" /><g
     id="Vrstva_2"
     display="none"
     style="display:none"
     transform="translate(-67.871,-275.25)" /><g
     id="Vrstva_1"
     transform="matrix(0.30627871,0,0,0.30627871,-20.787442,-14.931087)"><g
       id="g124"><path
         d="m 339.992,155.352 -31.641,31.639 c -6.301,-3.736 -13.65,-5.889 -21.506,-5.889 H 219 l -31.531,-31.527 c -1.039,-1.813 -2.295,-3.521 -3.832,-5.057 -2.322,-2.322 -5.012,-4.047 -7.898,-5.236 v -12.008 c 0,-7.688 -6.232,-13.922 -13.92,-13.918 v 24.369 c -5.658,0.9 -11.189,3.572 -15.656,8.039 l -23.895,23.895 c -10.691,10.691 -11.25,27.467 -1.248,37.471 10.004,10.004 26.781,9.445 37.473,-1.246 l 4.68,-4.68 9.477,9.479 c -1.252,3.992 -1.928,8.242 -1.928,12.648 v 1.76 c 0,17.926 11.176,33.234 26.936,39.359 v 32.033 c 0,6.988 5.662,12.65 12.652,12.65 6.986,0 12.652,-5.662 12.652,-12.65 v -29.166 h 62.852 v 29.166 c 0,6.988 5.662,12.65 12.652,12.65 6.986,0 12.652,-5.662 12.652,-12.65 v -36.848 c 10.855,-7.639 17.957,-20.26 17.957,-34.545 v -1.76 c 0,-8.244 -2.373,-15.93 -6.457,-22.432 l 17.375,-17.377 c 7.782,-7.779 7.782,-20.392 -10e-4,-28.169 z"
         id="path120"
         inkscape:connector-curvature="0"
         style="fill:#71bdf1" /><path
         d="m 231.123,48.75 c -90.018,0 -163.252,73.234 -163.252,163.248 0,90.02 73.234,163.252 163.252,163.252 90.018,0 163.252,-73.232 163.252,-163.252 0,-90.014 -73.234,-163.248 -163.252,-163.248 z M 98.889,211.998 c 0,-72.912 59.32,-132.23 132.234,-132.23 29.34,0 56.473,9.619 78.432,25.852 L 128.201,294.891 C 109.887,272.197 98.889,243.363 98.889,211.998 Z m 132.234,132.234 c -30.396,0 -58.404,-10.334 -80.762,-27.635 L 332.175,126.843 c 19.436,23.023 31.182,52.736 31.182,85.154 0,72.917 -59.322,132.235 -132.234,132.235 z"
         id="path122"
         inkscape:connector-curvature="0"
         style="fill:#ffdea5" /></g></g></svg>