<?xml version="1.0" encoding="UTF-8" standalone="no"?>
<!-- Generator: Adobe Illustrator 16.0.0, SVG Export Plug-In . SVG Version: 6.00 Build 0)  -->

<svg
   xmlns:dc="http://purl.org/dc/elements/1.1/"
   xmlns:cc="http://creativecommons.org/ns#"
   xmlns:rdf="http://www.w3.org/1999/02/22-rdf-syntax-ns#"
   xmlns:svg="http://www.w3.org/2000/svg"
   xmlns="http://www.w3.org/2000/svg"
   xmlns:sodipodi="http://sodipodi.sourceforge.net/DTD/sodipodi-0.dtd"
   xmlns:inkscape="http://www.inkscape.org/namespaces/inkscape"
   version="1.1"
   x="0px"
   y="0px"
   width="120.00147"
   height="120"
   viewBox="0 0 120.00147 120"
   enable-background="new 0 0 462.245 424"
   xml:space="preserve"
   id="svg224"
   sodipodi:docname="no-smoking.svg"
   inkscape:version="0.92.1 r15371"><metadata
     id="metadata230"><rdf:RDF><cc:Work
         rdf:about=""><dc:format>image/svg+xml</dc:format><dc:type
           rdf:resource="http://purl.org/dc/dcmitype/StillImage" /><dc:title></dc:title></cc:Work></rdf:RDF></metadata><defs
     id="defs228" /><sodipodi:namedview
     pagecolor="#ffffff"
     bordercolor="#666666"
     borderopacity="1"
     objecttolerance="10"
     gridtolerance="10"
     guidetolerance="10"
     inkscape:pageopacity="0"
     inkscape:pageshadow="2"
     inkscape:window-width="1600"
     inkscape:window-height="840"
     id="namedview226"
     showgrid="false"
     fit-margin-top="0"
     fit-margin-left="0"
     fit-margin-right="0"
     fit-margin-bottom="0"
     inkscape:zoom="0.55660377"
     inkscape:cx="-165.52616"
     inkscape:cy="163.25001"
     inkscape:window-x="0"
     inkscape:window-y="0"
     inkscape:window-maximized="1"
     inkscape:current-layer="svg224" /><g
     id="Vrstva_2"
     display="none"
     style="display:none"
     transform="translate(-67.869,-255.25)" /><g
     id="Vrstva_1"
     transform="matrix(0.36753446,0,0,0.36753446,-24.944196,-17.917305)"><g
       id="g221"><g
         id="g217"><g
           id="g215"><path
             d="M 316.209,217.486 H 174.18 v 42.885 h 141.838 c 10.549,0.045 19.141,-9.514 19.191,-21.355 0.057,-11.844 -8.451,-21.483 -19,-21.53 z"
             id="path203"
             inkscape:connector-curvature="0"
             style="fill:#71bdf1" /><polygon
             points="167.953,260.371 167.953,217.486 158.379,217.445 158.379,260.33 "
             id="polygon205"
             style="fill:#71bdf1" /><path
             d="m 142.582,218.158 v 41.422 c 1.529,0.453 3.125,0.721 4.781,0.729 l 4.791,0.021 v -42.885 l -4.602,-0.023 c -1.722,-0.006 -3.382,0.266 -4.97,0.736 z"
             id="path207"
             inkscape:connector-curvature="0"
             style="fill:#71bdf1" /><path
             d="m 122.133,238.779 c -0.045,9.986 6.006,18.379 14.223,20.801 v -41.422 c -8.147,2.424 -14.18,10.715 -14.223,20.621 z"
             id="path209"
             inkscape:connector-curvature="0"
             style="fill:#71bdf1" /><path
             d="m 186.316,168.152 c 17.445,0 26.289,-8.844 26.289,-26.291 0,-2.566 0.51,-15.379 10.535,-15.379 v -9.795 c -12.158,0 -20.33,10.117 -20.33,25.174 0,10.184 -2.76,16.496 -16.494,16.496 -18.736,0 -23.688,15.494 -23.688,23.688 v 21.215 h 9.795 v -21.186 c 0.028,-2.324 0.827,-13.922 13.893,-13.922 z"
             id="path211"
             inkscape:connector-curvature="0"
             style="fill:#71bdf1" /><path
             d="m 171.404,153.98 c 17.445,0 26.289,-8.846 26.289,-26.289 0,-2.566 0.51,-15.379 10.535,-15.379 v -9.795 c -12.16,0 -20.33,10.117 -20.33,25.174 0,10.184 -2.76,16.494 -16.494,16.494 -18.736,0 -23.689,15.496 -23.689,23.689 v 21.217 h 9.795 v -21.188 c 0.027,-2.323 0.828,-13.923 13.894,-13.923 z"
             id="path213"
             inkscape:connector-curvature="0"
             style="fill:#71bdf1" /></g></g><path
         d="m 231.121,48.75 c -90.02,0 -163.252,73.234 -163.252,163.248 0,90.02 73.232,163.252 163.252,163.252 90.018,0 163.252,-73.232 163.252,-163.252 0,-90.014 -73.234,-163.248 -163.252,-163.248 z M 98.887,211.998 c 0,-72.912 59.318,-132.23 132.234,-132.23 29.342,0 56.471,9.619 78.43,25.852 L 128.199,294.891 C 109.883,272.197 98.887,243.363 98.887,211.998 Z m 132.234,132.234 c -30.395,0 -58.404,-10.334 -80.762,-27.635 L 332.173,126.843 c 19.434,23.023 31.182,52.74 31.182,85.154 0,72.917 -59.322,132.235 -132.234,132.235 z"
         id="path219"
         inkscape:connector-curvature="0"
         style="fill:#ffdea5" /></g></g></svg>