<?xml version="1.0" encoding="utf-8"?>
<!-- Generator: Adobe Illustrator 16.0.0, SVG Export Plug-In . SVG Version: 6.00 Build 0)  -->
<!DOCTYPE svg PUBLIC "-//W3C//DTD SVG 1.1//EN" "http://www.w3.org/Graphics/SVG/1.1/DTD/svg11.dtd">
<svg version="1.1" xmlns="http://www.w3.org/2000/svg" xmlns:xlink="http://www.w3.org/1999/xlink" x="0px" y="0px"
	 width="645.602px" height="600px" viewBox="0 0 645.602 600" enable-background="new 0 0 645.602 600" xml:space="preserve">
<g id="Vrstva_2" display="none">
</g>
<g id="Vrstva_1">
	<g>
		<path fill="#FFDEA5" d="M453.127,384.004c-1.372-3.053-4.406-5.016-7.753-5.016h-18.641v-18.34
			c0-71.854-49.204-132.428-115.686-149.811c6.087-5.137,9.624-11.615,9.624-18.824c0-17.561-20.965-30.805-48.767-30.805
			s-48.767,13.244-48.767,30.805c0,7.209,3.537,13.688,9.624,18.824c-66.481,17.383-115.686,77.957-115.686,149.811v18.34H98.437
			c-3.347,0-6.381,1.963-7.753,5.016c-1.372,3.051-0.825,6.625,1.396,9.127l37.999,42.803c1.613,1.816,3.927,2.857,6.356,2.857
			h270.939c2.43,0,4.743-1.041,6.356-2.857l37.999-42.803C453.952,390.629,454.499,387.055,453.127,384.004z M240.139,192.014
			c0-5.629,12.375-13.805,31.767-13.805s31.767,8.176,31.767,13.805c0,5.631-12.375,13.807-31.767,13.807
			S240.139,197.645,240.139,192.014z M134.077,360.648c0-75.998,61.829-137.828,137.828-137.828s137.828,61.83,137.828,137.828
			v18.34H134.077V360.648z M403.555,421.791H140.256l-22.907-25.803h309.113L403.555,421.791z"/>
		<path fill="#FFDEA5" d="M170.056,325.328l16.084,5.504c10.913-31.887,38.291-55.223,71.449-60.902l-2.871-16.756
			C215.425,259.904,182.984,287.553,170.056,325.328z"/>
		<path fill="#FFDEA5" d="M547.665,259.09c0-0.529-0.05-1.059-0.147-1.578l-9.49-50.225c-0.759-4.014-4.267-6.922-8.353-6.922
			h-87.992c-4.086,0-7.594,2.908-8.353,6.922l-9.488,50.225c-0.098,0.52-0.147,1.049-0.147,1.578
			c0,31.293,23.316,57.23,53.485,61.387v101.314h-25.888v17h68.773v-17H494.18V320.477
			C524.349,316.32,547.665,290.383,547.665,259.09z M522.631,217.365l3.146,16.654h-80.196l3.146-16.654H522.631z M440.701,259.852
			l1.669-8.832h86.619l1.669,8.832c-0.407,24.455-20.428,44.223-44.979,44.223S441.108,284.307,440.701,259.852z"/>
	</g>
</g>
</svg>
